<svg xmlns="http://www.w3.org/2000/svg" viewBox="0 0 647.35 706.12"><defs><style>.cls-1{fill:#ffeb99;}.cls-2{fill:#ffc285;}.cls-3{fill:#6b3dad;}.cls-4{fill:#defaff;}.cls-5{opacity:0.75;}.cls-6{fill:#f9de6b;}.cls-11,.cls-7,.cls-8{fill:none;stroke-miterlimit:10;}.cls-7{stroke:#ddc252;stroke-width:3px;}.cls-8{stroke:#000;}.cls-9{fill:#1f95ff;}.cls-10{fill:#5aa9ff;}.cls-11{stroke:#ffab5f;}</style></defs><g id="Layer_2" data-name="Layer 2"><g id="Infected"><path class="cls-1" d="M527.09,597c-58.45-13.66-99-27.33-131.82-14.31L381.16,464l18.93,16v0h0c-.05-.32-.39-2.56-.76-6.16h0c-.08-.81-.17-1.68-.25-2.62-1.38-15.66-2.32-48.69,11-70.17-.16-2.33-.42-6.3-.74-10.91-.56-8.07-1.31-18.12-2-24.87-.07-.7-.15-1.37-.22-2h0c-11.17-10.06-52.53-43.91-103.48-44.27l-.54,2c-16,14-39-3-39-3l.5-2.5c-14.64,2.25-71.36,12.36-96.5,37.5-29,29-65,131-65,131a90.28,90.28,0,0,0,12,7.83c11.55,6.42,30.36,14.23,51.73,12.69a73.44,73.44,0,0,0,24-5.82c10.69,19.64,63.16,23.53,69.26,18.3s34.11-8.83,38.17-7.23a8.24,8.24,0,0,1,2.83-.77,17.05,17.05,0,0,1,9.08,1.53l0,0a8.23,8.23,0,0,1,.88.45,16.82,16.82,0,0,1,5.64,5.38l.13.18c8.08,11.72,8.44,34.2,11.23,47.44,4,19,12,52,13,55s-4,11-12,9-9,1-9,5-16,13-26,1c-4-7,9-6,2-10s-9-1-12,3-15-1-17-3c0,0,2.46-27.76,7.86-56a43.9,43.9,0,0,1-19.86-11c-9.43,4.29-64.46,11.52-102,4.66-8.07,33.49-15,62.34-15,62.34s110.28,36.76,196.09,11.49c-49,43.15-127,92.13-183.09,60.51-71-40-113-56-108-118s-41-69-43-124,29-78,35-99a42,42,0,0,0-6-36c-35-68-31-106,33-159s43.5-22.5,73.5-78.5,259.06-167.3,321,34c16,52,128.5,2.5,175.5,57.5,51.73,60.53-42,94-75,180,0,0-8,57,37,95S604.09,615,527.09,597Z"/><path class="cls-2" d="M254.09,261c-2.41,4.81-6.62,4.2-9.6,2.87a22.27,22.27,0,0,1-3.52-2.15,1.87,1.87,0,0,1-.39.22c-2.78,1.3-8.75-.24-12.49-12.94a45.07,45.07,0,0,1-.2-9.85c1.34-12.28,9.49-11.27,12-10.66l.55.78C245.56,236.74,257.23,254.75,254.09,261Z"/><path class="cls-3" d="M355.09,198c-2.36.43-4.79.8-7.24,1.12-20.38,2.65-42.94,1.67-52.76-.12-11-2-44-5-53,25q-.68,2.25-1.32,4.2c-.06.17-.11.34-.17.5a7,7,0,0,0-.73-.21c-2.49-.61-10.64-1.62-12,10.66L225.09,186s-4-16,15-23,63-11,76-17,76-36,91-4S377.09,194,355.09,198Z"/><path class="cls-2" d="M328.16,206c-1.92,3.84,8.24,14,17.72,16.16-.48,9.17-.71,17.45-.77,20.06-54.19,20.18-93.94-6-104.34-14q.64-1.95,1.32-4.2c9-30,42-27,53-25,9.82,1.79,32.38,2.77,52.76.12-.61,4.23-1.1,9.62-1.49,15.17-3.44-1-8.94-4.23-10.56-6.66S331.55,203.41,328.16,206Z"/><path class="cls-4" d="M348.09,241s-2,51-17,61c-6,4-15.34,5.84-24.67,6.35-13.79.76-27.66-1.31-31.27-3.19h0l-1.66-.83-1-.51-.78-.41-.18-.1-.5-.28-.51-.3-.77-.49c-.51-.33-1.05-.71-1.6-1.13l-.57-.44-.45-.36c-5.52-4.56-14.22-14.74-26.53-38.36a1.87,1.87,0,0,0,.39-.22,22.27,22.27,0,0,0,3.52,2.15c3,1.33,7.19,1.94,9.6-2.87,3.14-6.28-8.53-24.29-13.67-31.73l.18-.57c.06-.16.11-.33.17-.5,10.4,8,50.15,34.13,104.34,14C346.1,241.81,347.09,241.43,348.09,241Z"/><path class="cls-2" d="M306.42,308.38,303.63,319l-.54,2c-16,14-39-3-39-3l.5-2.5,3-14.78a17.48,17.48,0,0,0,4.54,3.28,25.18,25.18,0,0,0,3,1.15h0C278.76,307.07,292.63,309.14,306.42,308.38Z"/><g id="virus" class="cls-5"><path class="cls-6" d="M506.37,447.29c2.13,4.79-13.13,7.23-10.4,12.52a21.18,21.18,0,0,0,4.23,4.56c1.5.9,4.06,1.17,8.18-1.79,7.79-5.6,9.68,9.17,6.58,17.7s-9.08-2.58-13,3.25-1.5,7.85,1.4,9.28,7-2.21,9.48.9-5.09,17-10.59,17.43-3.19-4.73-9.38-5.89-13.08,8.23-7.19,12.17,4.59,1.85,7.68,5.47-7.89,10.58-12.88,10.42-4.89,1-7.29-7.15-2.39-8.1-5.79-8.93-7.79,5.59-4.5,11.41-.6,11.64-8.48,10.07S438.06,535,442,529.2s7.59-7.79,2.7-12.92-9.09-2.59-11,.88-.31,8.86-5.2,9.8-11.48-4.61-13.57-9.42,13.49-7,10.79-12.35a8.16,8.16,0,0,0-1.7-2.36,16.57,16.57,0,0,0-3.28-2.08c-1.55-.55-3.92-.34-7.41,2.2-7.75,5.65-9.75-9.1-6.72-17.66s9.11,2.53,13-3.34,1.44-7.87-1.46-9.27-7,2.27-9.49-.83,5-17,10.46-17.5,3.22,4.69,9.42,5.81,13-8.32,7.1-12.23-4.6-1.81-7.72-5.41,7.81-10.63,12.8-10.51,4.89-1,7.34,7.1,2.45,8.08,5.85,8.89,7.75-5.65,4.42-11.44.51-11.66,8.41-10.14,16.4,3.55,12.55,9.41-7.53,7.85-2.61,12.95,9.11,2.52,11-1,.24-8.86,5.12-9.84S504.24,442.5,506.37,447.29Z"/><path class="cls-7" d="M436.93,485.81s-1.34-4.14-5.52-2.57-5.3-7.43-1.34-12.19,3.39,2.82,9.05-.54"/><path class="cls-7" d="M462.23,504.54a4.45,4.45,0,0,0-5.66,2.84c-1.56,4.21-9.28-.17-10.33-6.09s4.45-1,5.62-7.45"/><path class="cls-7" d="M453,461.21s4.27-1.24,3.25-5.49,8-5.13,12.24-1-3.23,3.34-.64,9.14"/><path class="cls-7" d="M472.68,478.65a4.31,4.31,0,0,0,6.15-1.1c2.68-3.63,8.69,2.89,8,8.94s-4.48-.3-7.43,5.6"/></g><path class="cls-8" d="M310.17,510.56c-5.34-2.2,1.48,10.52-7.08,11.47-9,1-11-7-5-11,.85-.57.84-1,.17-1.23a8.24,8.24,0,0,1,2.83-.77A17.05,17.05,0,0,1,310.17,510.56Z"/><path class="cls-8" d="M329.09,628c-8-2-9,1-9,5s-16,13-26,1c-4-7,9-6,2-10s-9-1-12,3-15-1-17-3c0,0,2.46-27.76,7.86-56,10.2,2.28,23.17.3,36.14-15,11.51-18,10.08-29.76,5.77-36.44,8.08,11.72,8.44,34.2,11.23,47.44,4,19,12,52,13,55S337.09,630,329.09,628Z"/><path class="cls-2" d="M472.09,443c-8,47-29,50-29,50s-19.9-1.39-35.78-12.36a48.09,48.09,0,0,1-8-6.84h0c-.08-.81-.17-1.68-.25-2.62-1.38-15.66-2.32-48.69,11-70.17-.16-2.33-.42-6.3-.74-10.91l.18-.07c-.44-6.39-1.15-15.45-2.19-24.8-.07-.7-.15-1.37-.22-2h0c-1.75-15.23-4.36-30.74-8-36.22,2,5-8,6-34-15,0,0-4-2,3-8,0,0-8,1-7-11s2-19,23-23,34-10,45,12,8,28,7,30C436.09,312,480.09,396,472.09,443Z"/><path class="cls-2" d="M311.09,553c-13,15.29-25.94,17.27-36.14,15a43.9,43.9,0,0,1-19.86-11c-9.43,4.29-64.46,11.52-102,4.66a89.89,89.89,0,0,1-17-4.66c-26.21-10.48-23.82-47.33-21-65.17,11.55,6.42,30.36,14.23,51.73,12.69a73.44,73.44,0,0,0,24-5.82c10.69,19.64,63.16,23.53,69.26,18.3s34.11-8.83,38.17-7.23c.67.26.68.66-.17,1.23-6,4-4,12,5,11,8.56-.95,1.74-13.67,7.08-11.47l0,0a17.54,17.54,0,0,1,6.52,5.83l.13.18C321.17,523.27,322.6,535,311.09,553Z"/><path class="cls-4" d="M310.17,510.56c-5.34-2.2,1.48,10.52-7.08,11.47-9,1-11-7-5-11,.85-.57.84-1,.17-1.23a8.24,8.24,0,0,1,2.83-.77A17.05,17.05,0,0,1,310.17,510.56Z"/><path class="cls-4" d="M329.09,628c-8-2-9,1-9,5s-16,13-26,1c-4-7,9-6,2-10s-9-1-12,3-15-1-17-3c0,0,2.46-27.76,7.86-56,10.2,2.28,23.17.3,36.14-15,11.51-18,10.08-29.76,5.77-36.44,8.08,11.72,8.44,34.2,11.23,47.44,4,19,12,52,13,55S337.09,630,329.09,628Z"/><path class="cls-3" d="M263,222.09c-1.7-5.94,4.24-5.94,7.64-6.79s9.34-4.25,11-6.79,4.24-4.25,7.64-1.7C291.9,211.9,273.23,228,263,222.09Z"/><path class="cls-3" d="M354.47,221.24a11.61,11.61,0,0,1-8.59.88c-9.48-2.19-19.64-12.32-17.72-16.16,3.39-2.55,5.94-.85,7.64,1.7s7.12,5.64,10.56,6.66l.47.13C350.23,215.3,356.17,215.3,354.47,221.24Z"/><path class="cls-9" d="M407.31,480.67c-3.35,2.56-5.66,1.51-7.23-.67h0c-.05-.32-.39-2.56-.76-6.16A48.09,48.09,0,0,0,407.31,480.67Z"/><path class="cls-10" d="M400.09,480l-18.93-16,14.11,118.69L397.09,598c-17.16,18.68-39.09,30.48-62.91,37.49C248.37,660.79,138.09,624,138.09,624s6.91-28.85,15-62.34c37.56,6.86,92.59-.37,102-4.66A43.9,43.9,0,0,0,275,568c-5.4,28.25-7.86,56-7.86,56,2,2,14,7,17,3s5-7,12-3-6,3-2,10c10,12,26,3,26-1s1-7,9-5,13-6,12-9-9-36-13-55c-2.79-13.24-3.15-35.72-11.23-47.44l-.13-.18a16.82,16.82,0,0,0-5.64-5.38,8.23,8.23,0,0,0-.88-.45l0,0a17.05,17.05,0,0,0-9.08-1.53,8.24,8.24,0,0,0-2.83.77c-4.06-1.6-32.16,2.08-38.17,7.23s-58.57,1.34-69.26-18.3a73.44,73.44,0,0,1-24,5.82c-21.37,1.54-40.18-6.27-51.73-12.69a90.28,90.28,0,0,1-12-7.83s36-102,65-131c25.14-25.14,81.86-35.25,96.5-37.5l-.5,2.5s23,17,39,3l.54-2c50.95.36,92.31,34.21,103.48,44.27h0c.07.63.15,1.3.22,2,.7,6.75,1.45,16.8,2,24.87.32,4.61.58,8.58.74,10.91-13.34,21.48-12.4,54.51-11,70.17.08.94.17,1.81.25,2.62h0c.37,3.6.71,5.84.76,6.16h0Z"/><path class="cls-11" d="M409.59,401.53s2,35,4,41"/><path class="cls-11" d="M368.59,304.53s33.5-3.5,38.5-6.5,5-19,5-19"/><path class="cls-11" d="M390.34,301.77c6.25,1.76,8.25,6.76,3.25,8.76a64.72,64.72,0,0,1-10,3"/><path class="cls-11" d="M319.09,520s0,11-9,13"/><path class="cls-11" d="M317.58,541.05s-5,6.48-11,6.48"/><path class="cls-11" d="M306.23,558.16s-4.14,3.87-9.14,1.87"/><g id="virus-2" data-name="virus" class="cls-5"><path class="cls-6" d="M595.09,245.69c-3,6.39-18-7.45-21,0a30.29,30.29,0,0,0-1,8.39c.34,2.34,2.19,5.25,8.52,7,12,3.29-1.12,18.09-12.15,22.26s-4.92-11.74-13.93-10.75-9,5.24-8.06,9.51,8,5.39,6.92,10.7-21.06,9.43-26,4.06,2.06-7.44-1.89-14.92-19-6.53-18,3.05,1.95,6.41.91,12.79-17,.92-21-4.42-5-4.3,1.09-13.84,6.07-9.53,4.1-13.81-12-3.29-15,5.2-12.06,9.49-17-.12-9.86-20.32-.85-21.31,14,1.17,15.06-8.4-4.92-11.75-9.93-10.72-9,7.38-14,3.08-4.89-16-1.84-22.37,18.12,8,21.17.56a11.45,11.45,0,0,0,.93-3.83,23.38,23.38,0,0,0-.63-5.24c-.74-2.1-2.9-4.4-8.3-5.83-12-3.2,1-18.1,12-22.36s5,11.71,14,10.64,9-5.32,8-9.58-8-5.32-7-10.65,21-9.58,26-4.25-2,7.45,2,14.9,19,6.39,18-3.19-2-6.39-1-12.78,17-1.06,21,4.26,5,4.26-1,13.84-6,9.58-4,13.84,12,3.2,15-5.32,12-9.58,17,0,10,20.23,1,21.29-14-1.06-15,8.52,5,11.71,10,10.65,9-7.46,14-3.2S598.09,239.3,595.09,245.69Z"/><path class="cls-7" d="M499.59,206.53s3-5-2-8,3-12,11-12,0,6,8,9"/><path class="cls-7" d="M501.86,249.25s-2-5.47-7.49-3.45-7.48-9.85-2.47-16.09,4.68,3.76,12-.6"/><path class="cls-7" d="M537.3,202s4.75,3.38,8.13-1.37,11.73,3.94,11.1,11.91-6-.47-9.61,7.27"/><path class="cls-7" d="M536.18,237.7s.34,5.82,6.16,5.47,4.31,11.6-2.3,16.11-3.38-4.95-11.68-2.9"/></g><g id="virus-3" data-name="virus" class="cls-5"><path class="cls-6" d="M117.93,307.06c-2.15,1.61-4.72-5.73-7.07-3.76a11.56,11.56,0,0,0-1.85,2.63c-.31.85-.21,2.16,1.61,3.87,3.44,3.25-3.62,5.88-8.08,5.3s.45-4.82-2.76-6.1-4,.15-4.42,1.75,1.71,3.24.41,4.84-8.78-.61-9.49-3.3,2-2.13,2-5.35-5.21-5.59-6.62-2.2-.49,2.5-2,4.45-5.9-2.73-6.27-5.23-.9-2.34,2.85-4.46,3.75-2.11,3.86-3.9-3.44-3.25-6-1-5.76,1-5.7-3.08.33-8.59,3.54-7.31,4.5,2.9,6.57-.13.46-4.82-1.41-5.37-4.37.85-5.28-1.48,1.23-6.25,3.4-7.84,4.66,5.93,7,4a4.57,4.57,0,0,0,1-1.12,8.7,8.7,0,0,0,.72-1.88c.13-.83-.18-2-1.74-3.44-3.47-3.22,3.58-5.9,8-5.36s-.42,4.83,2.8,6.08,4-.18,4.41-1.79-1.74-3.22-.44-4.83,8.79.55,9.51,3.23-2,2.14-2,5.36,5.25,5.55,6.63,2.15.48-2.5,2-4.47,5.91,2.69,6.31,5.19.91,2.33-2.82,4.47-3.74,2.15-3.84,3.94,3.47,3.22,6,.89,5.76-1.07,5.72,3.05-.26,8.58-3.48,7.33-4.52-2.87-6.58.17-.42,4.83,1.46,5.37,4.36-.89,5.28,1.43S120.09,305.45,117.93,307.06Z"/><path class="cls-7" d="M92.81,276.81a2.17,2.17,0,0,0,.76-3.05c-1.14-1.9,3.17-3.49,5.86-2.06s-1.08,2,1.08,4.46"/><path class="cls-7" d="M85.91,291.56a2.17,2.17,0,0,0-1.9-2.5c-2.21-.3-.75-4.64,2-5.84s.9,2.1,4.16,1.95"/><path class="cls-7" d="M106.32,282a2.18,2.18,0,0,0,3,1c2-1,3.24,3.42,1.6,6s-1.93-1.23-4.54.72"/><path class="cls-7" d="M99.53,293.83a2.17,2.17,0,0,0,1.1,2.94c2,.92-.63,4.66-3.67,5s-.25-2.27-3.41-3.07"/></g><g id="virus-4" data-name="virus" class="cls-5"><path class="cls-6" d="M202.38,172.54c-4.58.13-2.27-12.08-7.43-11.65a18.26,18.26,0,0,0-5,1.78c-1.17.85-2.12,2.69-.83,6.69,2.43,7.58-10.34,4.47-16.54-.48s4.72-6,1-10.75-6.08-3.54-8.08-1.8-.15,5.93-3.44,6.85-12.63-9-11.44-13.3,4.82-.95,7.53-5.25-3.11-12.36-8.05-9.14-2.83,2.88-6.71,4.1-6.53-9.18-5-12.88.61-4,8-3.29,7.39.69,9-1.61-2.43-7.58-8.19-6.88-9.48-4-5.94-9.47S149,94.27,152.73,99s4.31,8.09,10,6,4.72-6,2.38-8.53-7.26-2.95-6.65-6.92,7.07-7.21,11.65-7.31,2,12.31,7.18,11.91a7.38,7.38,0,0,0,2.44-.56,13.38,13.38,0,0,0,2.66-1.83c.89-1,1.39-2.84.27-6.25-2.49-7.55,10.31-4.53,16.54.38s-4.67,6.06-.9,10.76,6.11,3.5,8.1,1.74.1-5.93,3.38-6.88,12.7,9,11.54,13.24-4.81,1-7.49,5.3,3.21,12.34,8.12,9.09,2.81-2.91,6.68-4.15,6.6,9.14,5.09,12.86-.58,4-8,3.33-7.39-.63-9,1.68,2.49,7.56,8.24,6.82,9.51,4,6,9.44-7.58,11.24-11.35,6.54-4.37-8.06-10-5.92-4.67,6.07-2.31,8.54,7.28,2.9,6.71,6.87S207,172.41,202.38,172.54Z"/><path class="cls-7" d="M190.12,108.52s3.82.26,3.7-3.36,7.66-1.71,10.49,2.73-3.3,1.69-2.12,7"/><path class="cls-7" d="M167.43,121.8a3.45,3.45,0,0,0-.75-5.13c-3.05-2.47,2.77-6.92,8-5.89s-.41,3.65,4.58,6.5"/><path class="cls-7" d="M206,128.18a4,4,0,0,0,3.63,4.13c3.81.54,2,7.62-2.63,9.51s-1.85-3.45-7.39-3.29"/><path class="cls-7" d="M185.93,137.59a3.26,3.26,0,0,0-.83,5c2.25,3.13-4.85,5.65-9.67,3.25s1.52-3.27-2.54-7.3"/></g></g></g></svg>