<svg xmlns="http://www.w3.org/2000/svg" xmlns:xlink="http://www.w3.org/1999/xlink" viewBox="0 0 610.1 701.51"><defs><style>.cls-1{fill:url(#linear-gradient);}.cls-2{fill:#009957;}.cls-3{fill:#ffba7b;}.cls-4{fill:#78ff78;}.cls-5{fill:#fff;}.cls-6{fill:#a1ffa1;}.cls-7{fill:#abffab;}.cls-8,.cls-9{opacity:0.08;}.cls-9{fill:none;stroke:#000;stroke-linecap:round;stroke-linejoin:round;stroke-width:3px;}</style><linearGradient id="linear-gradient" x1="305.05" x2="305.05" y2="667.41" gradientUnits="userSpaceOnUse"><stop offset="0.39" stop-color="#6cff6c"/><stop offset="1" stop-color="#009957"/></linearGradient></defs><g id="Layer_2" data-name="Layer 2"><g id="cured"><path class="cls-1" d="M610.1,463.3c0,71.37-69.14,99.25-80.29,139.4-4.11,14.8-17.47,37.33-37.23,57.14-9.51-10.84-25.38-29.1-47.08-63.28-28.22-44.43-41.63-92.88-47.65-130.41l-.27-1.71q-.76-4.92-1.37-9.56c-.08-.61-.15-1.22-.23-1.84-.11-.82-.21-1.65-.3-2.46-.66-5.54-1.15-10.74-1.52-15.53,0-.54-.08-1.06-.11-1.59-.07-1-.13-2.06-.2-3.06-.15-2.51-.26-4.89-.35-7.12,0-.45,0-.88,0-1.32-.18-5.63-.14-10.27,0-13.73.08-1.89.2-3.43.33-4.59,0-.25.07-.52.12-.8a27.33,27.33,0,0,1,.82-3.51c.09-.32.19-.64.29-1,0,0,0-.05,0-.08l.3-.89a83.51,83.51,0,0,1,4-9.3c.16-.34.33-.66.49-1,.66-1.34,1.37-2.7,2.11-4.06.37-.7.74-1.38,1.12-2.07s.77-1.37,1.16-2.06c.19-.35.39-.69.59-1s.39-.69.59-1l1.2-2.07c.72-1.2,1.44-2.38,2.15-3.55.19-.32.38-.62.56-.93,1.77-2.87,3.54-5.63,5.22-8.18.19-.31.38-.61.58-.9,3.66-5.57,6.85-10.13,8.57-12.55.86-1.23,1.37-1.91,1.37-1.91l-1.29-1.95-7.38-11.2L415.27,332l-18-27.36h0l-19.3-29.26-.7-1.07a48.77,48.77,0,0,1-7,9.57c-.65.73-1.32,1.47-2,2.21-.89,1-1.84,1.95-2.82,2.95-.29.3-.58.6-.88.89-3.29,3.31-7,6.77-10.83,10.21l-1.93,1.72-.07.07c-.64.57-1.3,1.15-2,1.71-2.89,2.52-5.82,5-8.71,7.39l-2.12,1.74c-1.14.92-2.27,1.84-3.39,2.73-.32.27-.66.52-1,.78l-1.93,1.53c-.61.49-1.23,1-1.84,1.44-5.17,4-9.75,7.36-13,9.55a7,7,0,0,1-.6.4,32.64,32.64,0,0,1-3.27,2c-1.29.66-4.26,1.26-8.38,1.82l-1.85.24c-1.66.2-3.46.39-5.38.58l-2.85.27-1.5.13-2.29.19-3,.24c-.87.05-1.76.12-2.65.19l-3.27.22-1.81.12-1.69.11h0l-1.86.11-3.41.2v1.15c-14.93,9-28.47,1.93-31.2.32l-2.59.1-12.6.43c-.46,0-.9,0-1.33.05l-3.22.08c-.22,0-.45,0-.67,0l-1.73,0h-.36l-2,.06-1-1.65L179.55,277h0l-.34-.51-1.9,5.77h0l-20.84,63L149,368s42.93,15.61,51.7,101.48c3.24,31.64,10.65,70.91,4.26,106.71A399.45,399.45,0,0,0,199,632.22c-32.21-2.52-59.92,2.45-79.57,15.08C72.59,677.41,26.87,681.87,7.92,602.7S4.57,438.77,49.18,415.35s-35.69-94.79-23.42-147.2,20.07-47.95,62.45-94.79C139.14,117.08,117.2-16.21,231,1.63s89.21,47.95,153.89,87,152.77,1.12,178.42,62.45-27.88,85.87,0,155S610.1,391.93,610.1,463.3Z"/><polygon class="cls-2" points="239.87 68.76 239.87 84.67 223.95 84.67 223.95 100.19 207.63 100.19 207.63 84.67 192.12 84.67 192.12 68.76 207.63 68.76 207.63 53.64 223.95 53.64 223.95 68.76 239.87 68.76"/><path d="M217,303.19c.59.93,1.19,1.84,1.83,2.71C218.21,305,217.6,304.12,217,303.19Zm-14.54-78s0,.37-.06,1.05a3.39,3.39,0,0,1,.84-1.92C203,224.63,202.73,224.92,202.48,225.22Zm267.11,98.69a238.46,238.46,0,0,1-44.26-8.06,3.41,3.41,0,0,0-4.19,2.18,109.7,109.7,0,0,1-5,12.17,3.48,3.48,0,0,0,.19,3.42l7.38,11.2a3.46,3.46,0,0,1-.08,3.86c-1.72,2.42-4.91,7-8.57,12.55-.2.29-.39.59-.58.9-1.68,2.55-3.45,5.31-5.22,8.18-.18.31-.37.61-.56.93-.71,1.17-1.43,2.35-2.15,3.55l-1.2,2.07c-.2.33-.39.68-.59,1s-.4.69-.59,1c-.39.69-.78,1.37-1.16,2.06s-.75,1.37-1.12,2.07c-.74,1.36-1.45,2.72-2.11,4.06-.16.33-.33.65-.49,1a83.51,83.51,0,0,0-4,9.3l-.3.89s0,.06,0,.08c-.1.32-.2.64-.29,1a27.33,27.33,0,0,0-.82,3.51c-.05.28-.08.55-.12.8-.13,1.16-.25,2.7-.33,4.59-.16,3.46-.19,8.1,0,13.73,0,.44,0,.87,0,1.32.08,2.23.19,4.61.35,7.12.07,1,.13,2,.2,3.06,0,.53.08,1.05.11,1.59.36,4.78.85,10,1.52,15.53.09.81.19,1.64.3,2.46.08.62.15,1.23.23,1.84q.6,4.64,1.37,9.56a3.47,3.47,0,0,0,1.79,2.52l21.35,11.46c38.83,6.07,58.2-5.59,75.63-24C515.31,434.31,600.06,336.18,469.59,323.91Z"/><path d="M368.19,286.07c-.89,1-1.84,1.95-2.82,2.95-.29.3-.58.6-.88.89-3.29,3.31-7,6.77-10.83,10.21l-1.93,1.72-.07.07c-.64.57-1.3,1.15-2,1.71-2.89,2.52-5.82,5-8.71,7.39l-2.12,1.74c-1.14.92-2.27,1.84-3.39,2.73-.32.27-.66.52-1,.78l-1.93,1.53c-.61.49-1.24,1-1.84,1.44-5.17,4-9.75,7.36-13,9.55a7,7,0,0,1-.6.4,32.64,32.64,0,0,1-3.27,2c-1.29.66-4.26,1.26-8.38,1.82l-1.85.24c-1.66.2-3.46.39-5.38.58l-2.85.27-1.5.13c-.74.07-1.51.14-2.29.19l-3,.24c-.87.05-1.76.12-2.65.19l-3.27.22-1.81.12-1.69.11h0l-1.6.1h-.26a3.47,3.47,0,0,1-3.41-3.46V320.37a3.39,3.39,0,0,1,1.94-3.08,3.49,3.49,0,0,1,.39-.19l1-.51c1-.54,2-1.11,3-1.71a39.16,39.16,0,0,0,6.7-5.38c.48-.48.95-1,1.39-1.47l.69-.78c.35-.44.71-.87,1.05-1.31s.88-1.16,1.28-1.75c.18-.25.35-.52.52-.78.53-.79,1-1.58,1.46-2.38.15-.25.28-.49.42-.74s.3-.57.44-.86l.4-.79c.26-.54.5-1.07.74-1.59.12-.27.23-.54.34-.81.53-1.25,1-2.5,1.38-3.71.11-.32.21-.64.3-.95,0-.11.06-.23.1-.34.12-.39.22-.77.32-1.15l0-.13q.18-.61.33-1.23c.23-1,.43-1.93.6-2.85.08-.43.16-.87.22-1.28.15-.94.27-1.82.36-2.62,0-.23,0-.47.07-.69.05-.59.1-1.14.14-1.64a3.37,3.37,0,0,1,2.62-3l.06,0,.27-.08.26-.1.09,0a3.6,3.6,0,0,0,.74-.36l0,0,.29-.18a6.15,6.15,0,0,0,.6-.47,6.87,6.87,0,0,0,.95-.93c.1-.12.21-.24.31-.38a15.87,15.87,0,0,0,1.93-3.14c.2-.42.39-.86.59-1.33l.22-.51c.21-.53.41-1.1.61-1.71,0-.07,0-.14.07-.22.09-.27.17-.55.26-.84l.31-1.06c.08-.33.17-.68.26-1l.27-1.1c3.19-13.71-1.46-22.18-7.52-20.48a3.45,3.45,0,0,1-4.37-3.1l-.53-12.15a3.45,3.45,0,0,0-4.27-3.2h-.08l-.89.25a96.15,96.15,0,0,1-10.07,2.17c-.4.07-.82.13-1.22.18L280,227c-.82.1-1.62.17-2.4.22l-1.16.06-1.13,0a15.37,15.37,0,0,1-5.91-.94c-5.26-2.26-24.8-12.73-43.19-11.94l-.65,0c-.53,0-1,.07-1.59.13q-.42,0-.84.09-1.41.15-2.82.42l-.83.18a3.88,3.88,0,0,0-.49.11,8.34,8.34,0,0,0-.83.2c-.53.13-1.08.28-1.62.46l-.8.25c-.57.19-1.13.41-1.68.64l-.69.28-.79.35-.76.37c-.27.14-.54.27-.81.42s-.48.26-.71.4c-.5.29-1,.59-1.48.91-.28.17-.55.36-.83.56s-.75.53-1.12.82a31.51,31.51,0,0,0-3.65,3.34c-.26.28-.53.57-.78.87,0,0,0,.37-.06,1.05,0,.16,0,.34,0,.54s0,.28,0,.44a1.48,1.48,0,0,0,0,.22c0,.25,0,.51,0,.79v.06c0,.29,0,.6,0,.94,0,.17,0,.35,0,.54s0,.37,0,.56c0,.38,0,.78,0,1.19,0,.2,0,.41,0,.64,0,1.49,0,3.2,0,5.07,0,.77,0,1.56.05,2.38.1,5.13.41,11.28,1.12,17.9.1.94.21,1.89.34,2.86a150.07,150.07,0,0,0,2.77,15.94c.2.86.4,1.73.63,2.58.08.31.14.6.23.89.21.82.44,1.65.67,2.47.09.32.19.66.29,1,.22.78.47,1.55.71,2.32s.57,1.75.89,2.62.56,1.6.88,2.39c.47,1.24,1,2.45,1.48,3.65.46,1,.94,2.07,1.44,3.08v0c.5,1,1,2,1.56,3s1.12,1.94,1.72,2.88,1.19,1.83,1.83,2.71c5.74,8,13.45,13.79,23.74,15.69l-.41.47v14.67s.17.12.5.32l-2.59.1-12.6.43c-.46,0-.9,0-1.33.05l-3.22.08c-.23,0-.46,0-.67,0l-1.73,0h-.35a3.41,3.41,0,0,1-3-1.59L179.55,277h0c0-16.92,5.17-33.29,4.65-47.83a3.49,3.49,0,0,0-2.45-3.19,28.3,28.3,0,0,1-8.39-4.22,3.35,3.35,0,0,1-1.19-3.7c1.56-5.28,3.53-11.19,6-17.88q.8-2.16,1.67-4.43c.6-1.6,1.25-3.24,1.92-4.91.25-.65.51-1.29.77-1.94q1.17-2.93,2.47-6a3.58,3.58,0,0,1,1.64-1.53,21.12,21.12,0,0,0,4.32-2.69l.75-.6.35-.3c.16-.13.31-.28.47-.42a32.13,32.13,0,0,0,2.3-2.26l.6-.65.61-.71c.22-.24.42-.49.63-.74a56.44,56.44,0,0,0,5.21-7.58c.22-.37.43-.76.65-1.15.45-.81.9-1.63,1.33-2.5a3.47,3.47,0,0,1,3.66-1.8c41.26,7.81,56.87,24.54,81.4,22.3s60.22,24.54,62.45,45.73a11.55,11.55,0,0,1,.06,1.64s0,.12,0,.19,0,.23,0,.4c-.44,4-2.14,28.34,16.9,51.37A3.43,3.43,0,0,1,368.19,286.07Z"/><path class="cls-3" d="M310.2,263.13l-.27,1.1c-.08.34-.17.69-.26,1s-.2.71-.3,1.06l-.27.84-.07.22c-.21.6-.41,1.17-.61,1.71a5.49,5.49,0,0,0-.21.51c-.2.47-.39.91-.6,1.33a16.37,16.37,0,0,1-1.92,3.14c-.1.13-.22.26-.32.38a7.8,7.8,0,0,1-1.55,1.39l-.29.19s0,0,0,0c-.26.14-.5.26-.74.36l-.09,0-.26.1-.27.08a4,4,0,0,1-2.61-.12s0,1.17-.07,3.14c0,.5-.09,1.05-.14,1.64,0,.22-.05.45-.07.69-.09.8-.21,1.68-.36,2.62-.06.41-.14.85-.22,1.28-.17.92-.37,1.86-.6,2.85-.1.41-.21.82-.32,1.23a.93.93,0,0,0,0,.13c-.1.37-.2.75-.32,1.14,0,.12-.07.24-.1.35-.09.31-.19.62-.3.95-.39,1.21-.85,2.46-1.37,3.71-.12.27-.23.54-.35.8-.23.53-.48,1.06-.74,1.6l-.4.79c-.14.29-.29.58-.44.86s-.27.49-.42.74c-.45.8-.93,1.59-1.46,2.38-.16.26-.34.53-.52.78-.4.59-.84,1.17-1.28,1.75s-.69.87-1.05,1.31l-.69.78c-.45.5-.91,1-1.39,1.47a38.78,38.78,0,0,1-6.7,5.38c-.95.6-1.95,1.17-3,1.71l-1,.5-.39.19c-.62.29-1.27.58-1.94.86l-.08,0c-6.49,2.69-14.59,4.28-24.74,4.07a40.28,40.28,0,0,1-6.47-.65l-.21,0c-10.19-1.94-17.83-7.75-23.53-15.65-.64-.87-1.24-1.79-1.83-2.71s-1.17-1.9-1.72-2.88-1.06-2-1.56-3h0q-.75-1.51-1.44-3.09c-.52-1.19-1-2.4-1.48-3.64-.31-.79-.6-1.59-.88-2.39s-.6-1.74-.88-2.62-.49-1.54-.72-2.32c-.1-.32-.2-.66-.29-1-.23-.83-.45-1.65-.67-2.48-.09-.29-.15-.58-.23-.88-.22-.86-.42-1.73-.62-2.58a150.14,150.14,0,0,1-2.78-15.94c-.12-1-.24-1.92-.34-2.87-.71-6.61-1-12.76-1.12-17.89,0-.82,0-1.61-.05-2.38,0-1.87,0-3.58,0-5.07,0-.23,0-.44,0-.64,0-.41,0-.81,0-1.19,0-.19,0-.38,0-.56s0-.37,0-.55q0-.5,0-.93v-.06c0-.28,0-.55,0-.79a1.48,1.48,0,0,1,0-.22c0-.16,0-.3,0-.44s0-.38,0-.54c0-.68.06-1.05.06-1.05.25-.3.52-.59.78-.87a30.71,30.71,0,0,1,3.66-3.34c.36-.29.73-.57,1.11-.82s.55-.39.83-.56c.48-.32,1-.62,1.48-.91l.71-.41.81-.41.77-.37c.25-.12.51-.24.78-.35l.69-.28c.56-.24,1.11-.45,1.68-.64.27-.09.54-.18.8-.25.54-.18,1.09-.33,1.62-.46a8.34,8.34,0,0,1,.83-.2,3.88,3.88,0,0,1,.49-.11l.83-.18c.94-.18,1.88-.33,2.83-.43l.83-.08c.54-.06,1.06-.11,1.6-.13l.64,0c18.39-.79,37.93,9.68,43.19,11.94a15.4,15.4,0,0,0,5.91.94l1.13,0,1.16-.06c.78-.05,1.58-.12,2.4-.22l1.21-.16c.4-.05.82-.11,1.22-.18a98.19,98.19,0,0,0,10.07-2.17l.89-.25h.08a3.44,3.44,0,0,1,4.27,3.2l.53,12.15a3.46,3.46,0,0,0,4.38,3.1C308.74,241,313.39,249.42,310.2,263.13Z"/><path class="cls-3" d="M273.88,318.14v18.59c-14.93,9-28.47,1.93-31.2.32-.33-.2-.5-.32-.5-.32V322.06l.41-.47a40.28,40.28,0,0,0,6.47.65C259.25,322.45,267.38,320.85,273.88,318.14Z"/><polygon class="cls-2" points="427.33 98.06 427.33 136.75 388.63 136.75 388.63 174.48 348.94 174.48 348.94 136.75 311.24 136.75 311.24 98.06 348.94 98.06 348.94 61.31 388.63 61.31 388.63 98.06 427.33 98.06"/><path class="cls-3" d="M436.69,181.73s1.68,82.72-14.52,133.17a110.66,110.66,0,0,1-6.9,17.08l-18-27.36h0l-19.3-29.26a695.41,695.41,0,0,0,22-99.21s-8.92-8.92-4.46-35.68c2.23-16.73,7.81,2.23,7.81,2.23s11.15-32.34,32.34-32.34C459,112.59,451.19,176.15,436.69,181.73Z"/><path class="cls-3" d="M207.57,153.48q-1.29,3.28-2.61,6.08c-.35.77-.72,1.5-1.09,2.22-.43.87-.88,1.69-1.33,2.5-.22.39-.43.78-.65,1.15a56.44,56.44,0,0,1-5.21,7.58c-.21.25-.41.5-.63.74l-.61.71-.6.65a32.13,32.13,0,0,1-2.3,2.26c-.16.14-.31.29-.47.42l-.35.3-.75.6a21.12,21.12,0,0,1-4.32,2.69,8.16,8.16,0,0,1-1.2.46c-.15.36-.3.71-.44,1.07q-1.31,3.09-2.47,6c-.26.66-.53,1.31-.77,1.94-.67,1.67-1.32,3.31-1.92,4.91s-1.14,3-1.67,4.43c-2.48,6.69-4.45,12.6-6,17.88-.23.75-.45,1.49-.65,2.21-6.28,22.18-5,32.76-3.58,42.83.86,5.95,4.88,12.94,9.37,19.16h0l-20.84,63c-16.13-13-33.85-34.28-36.48-58.78-5.39-50.2,31-118.78,31-118.78-9.59-12.23,16.29-70.81,37.54-60.72,18.2,10.86,11.19,44.35,11.19,44.35S214.23,138,207.57,153.48Z"/><path class="cls-4" d="M494.49,645.32a1.07,1.07,0,0,0,.13-.19l.54-.7a146.44,146.44,0,0,0,23.26-46c12.78-41.92,6.44-84-13.59-111-17.12,5.81-33.37,17.59-46.69,33.84A144,144,0,0,0,434,564.68c-.74,2.1-1.43,4.22-2.09,6.37,0,0,17.85,21.92,34.68,41.84,3.62,4.27,7.18,8.45,10.52,12.3,8.75,10.1,15.9,17.95,18.05,19.24Z"/><path class="cls-5" d="M504.83,487.46c-2.59,10.63-5.47,21.18-8.45,31.7-1.46,5.26-3,10.5-4.54,15.75l-4.7,15.7-4.85,15.66c-1.68,5.2-3.29,10.42-5,15.6-3.4,10.39-6.9,20.75-10.68,31,2.59-10.63,5.46-21.18,8.44-31.7,1.46-5.27,3-10.5,4.54-15.75l4.7-15.7,4.86-15.66c1.68-5.2,3.3-10.42,5-15.6C497.55,508.09,501.05,497.73,504.83,487.46Z"/><path class="cls-5" d="M463.44,623.21c-.89,5.06-2.07,10-3.35,15-.61,2.48-1.33,4.94-2,7.4L455.94,653l-2.31,7.31c-.82,2.42-1.59,4.85-2.47,7.25-1.7,4.83-3.5,9.62-5.59,14.32.89-5.07,2.07-10.05,3.35-15,.61-2.48,1.33-4.93,2-7.4l2.16-7.35,2.32-7.3c.82-2.42,1.59-4.86,2.47-7.26C459.56,632.7,461.36,627.91,463.44,623.21Z"/><path class="cls-5" d="M513,614.35l-35.87,10.84L512,611.52a1.5,1.5,0,1,1,1.09,2.79Z"/><path class="cls-5" d="M466,611l-32.18-46.57,34.61,44.8a1.5,1.5,0,0,1-2.38,1.84Z"/><path class="cls-5" d="M476.61,581.67l47.66-14.92-46.68,17.76a1.5,1.5,0,0,1-1.06-2.81Z"/><path class="cls-5" d="M482.11,556.64l-24-35.36,26.42,33.59a1.5,1.5,0,0,1-2.36,1.86Z"/><path class="cls-5" d="M494.68,521.76l24-6.72-23,9.55a1.5,1.5,0,1,1-1.15-2.77A.58.58,0,0,1,494.68,521.76Z"/><path class="cls-6" d="M277.29,335.38l1.86-.11-1.6.1Z"/><path class="cls-6" d="M393.47,408.23c-.15,3.46-.19,8.1,0,13.73C393.28,416.33,393.31,411.69,393.47,408.23Z"/><path class="cls-6" d="M393.5,423.28c.09,2.23.2,4.61.35,7.12C393.69,427.89,393.58,425.51,393.5,423.28Z"/><path class="cls-6" d="M394.16,435.05c.37,4.79.86,10,1.52,15.53C395,445,394.52,439.83,394.16,435.05Z"/><path class="cls-6" d="M423.65,348.68a3.46,3.46,0,0,0,.08-3.86l1.29,1.95S424.51,347.45,423.65,348.68Z"/><polygon class="cls-2" points="130.58 336.47 130.58 354.39 113.11 354.39 113.11 371.86 95.19 371.86 95.19 354.39 78.17 354.39 78.17 336.47 95.19 336.47 95.19 319.45 113.11 319.45 113.11 336.47 130.58 336.47"/><polygon class="cls-2" points="518.36 266.57 518.36 290.87 494.67 290.87 494.67 314.56 470.37 314.56 470.37 290.87 447.29 290.87 447.29 266.57 470.37 266.57 470.37 243.49 494.67 243.49 494.67 266.57 518.36 266.57"/><polygon class="cls-2" points="112.74 233.31 112.74 245.24 101.11 245.24 101.11 256.87 89.18 256.87 89.18 245.24 77.85 245.24 77.85 233.31 89.18 233.31 89.18 221.98 101.11 221.98 101.11 233.31 112.74 233.31"/><path class="cls-4" d="M223.55,620.93q-2.76,1.7-5.71,3.2a121.34,121.34,0,0,0,3-12A81.7,81.7,0,0,1,223.55,620.93Z"/><path class="cls-4" d="M206.89,607.87c-36.35-8.07-73.16-29.65-103.42-62.28a143.05,143.05,0,0,1,39.9,9.85C172,567,194.17,586.19,206.89,607.87Z"/><path class="cls-4" d="M235.5,600.81c-.59,2.17-1.27,4.31-2,6.4-.45,1.38-.94,2.74-1.45,4.09-1.32-.06-2.65-.15-4-.26-1.12-.08-2.24-.18-3.38-.28q-5.61-.57-11.29-1.58c-10.53-27-35.68-52-70.06-65.86a140.78,140.78,0,0,0-50.87-10.43q-6.78-8.4-12.95-17.58C40.19,456.7,30.64,389.49,49.38,339.2a141.82,141.82,0,0,1,16.38,1.72c22.1,3.6,44.56,12.27,65.83,25.49,26.29,16.32,50.74,39.61,70.32,68.77C238.6,489.82,249.39,551.91,235.5,600.81Z"/><path class="cls-5" d="M231.86,611c-7.89-11.13-15.61-22.37-23.42-33.56l-23.16-33.73c-15.43-22.5-30.67-45.12-45.91-67.75S109,430.58,94,407.78l-22.46-34.2c-7.4-11.46-14.88-22.86-22.2-34.38C57.26,350.34,65,361.58,72.8,372.76L96,406.5c15.44,22.49,30.68,45.12,45.91,67.74s30.35,45.34,45.33,68.14l22.46,34.2C217.05,588,224.53,599.44,231.86,611Z"/><path class="cls-5" d="M183.24,536.86l30.69-79.56-27.87,80.59a1.5,1.5,0,1,1-2.84-1Z"/><path class="cls-5" d="M164.29,512.47l-91-6.29,91.17,3.29a1.5,1.5,0,0,1-.11,3Z"/><path class="cls-5" d="M139.2,470.61l29-75-26.21,76a1.5,1.5,0,1,1-2.83-1Z"/><path class="cls-5" d="M112.72,437l-68.66-5.11,68.82,2.12a1.5,1.5,0,1,1-.09,3Z"/><path class="cls-4" d="M216.76,631.81c-.67.42-1.35.82-2,1.21s-1.16.66-1.75,1c-27.3,14.79-65.93,16.41-103,1.46C71.18,619.79,44.14,590,36.6,559.08c1.06-.64,2.13-1.27,3.22-1.86,1.75-1,3.55-1.88,5.39-2.74A107.11,107.11,0,0,1,86,545.09a127,127,0,0,1,17.48.5,143.05,143.05,0,0,1,39.9,9.85c28.6,11.54,50.8,30.75,63.52,52.43a94.54,94.54,0,0,1,6.64,13.68c.51,1.33,1,2.66,1.43,4s.8,2.53,1.16,3.79C216.35,630.15,216.56,631,216.76,631.81Z"/><path class="cls-5" d="M216.54,631.72q-22.81-8.26-45.42-17.08c-7.55-2.89-15.06-5.89-22.59-8.84l-22.52-9-22.46-9.15c-7.47-3.1-15-6.15-22.4-9.31Q58.76,569,36.6,559.09,59.42,567.36,82,576.16c7.55,2.9,15.06,5.9,22.59,8.85l22.52,9,22.46,9.16c7.47,3.1,14.95,6.16,22.4,9.31Q194.37,621.84,216.54,631.72Z"/><path class="cls-5" d="M167.44,611.69l-10.81-49.4L170.35,611a1.5,1.5,0,1,1-2.89.81A.31.31,0,0,0,167.44,611.69Z"/><path class="cls-5" d="M150.94,606.4l-47.06,26.67,45.51-29.24a1.5,1.5,0,0,1,1.62,2.53Z"/><path class="cls-5" d="M123.8,593.83l-10.12-46.61,13,45.88a1.5,1.5,0,0,1-2.89.82A.29.29,0,0,1,123.8,593.83Z"/><path class="cls-5" d="M100.55,586.54,64.84,606.35,99,584a1.48,1.48,0,0,1,2.07.43,1.5,1.5,0,0,1-.43,2.08Z"/><path class="cls-5" d="M68.31,571.63,64,548.26l7.21,22.64a1.5,1.5,0,1,1-2.86.91A1.21,1.21,0,0,1,68.31,571.63Z"/><path class="cls-7" d="M492.59,659.84c-13.22,13.26-29.29,25.29-47.37,33-21.94,9.34-46.84,12.28-73.18,3.22a118.6,118.6,0,0,1-22.89-10.81c-52.42-31.72-105.59-49.53-150.15-53a399.76,399.76,0,0,1,5.94-56.07c6.39-35.79-1-75.06-4.26-106.7C191.91,383.57,149,368,149,368l7.49-22.63,20.84-63h0l1.91-5.78.33.52h0l37.64,59.16,1.05,1.65,2.3-.07,1.73,0,.67,0,3.22-.09,1.33,0c3.49-.11,7.8-.26,12.6-.44l2.59-.1a30.63,30.63,0,0,0,31.2-.31v-1.15l3.41-.2h.26l1.61-.1h0l1.69-.11,1.81-.12,3.27-.23c.9-.05,1.78-.12,2.65-.19l3-.23,2.29-.19,1.5-.13,2.85-.27c1.92-.19,3.72-.38,5.38-.58l1.85-.25c4.13-.55,7.09-1.16,8.39-1.81a33.91,33.91,0,0,0,3.26-2l.61-.4c3.29-2.2,7.86-5.54,13-9.56.62-.46,1.23-.94,1.84-1.43l1.93-1.53,1-.78c1.12-.89,2.26-1.81,3.39-2.73L341,311c2.89-2.39,5.82-4.87,8.71-7.39.65-.57,1.31-1.13,2-1.71l.07-.07,1.93-1.72c3.85-3.44,7.54-6.9,10.83-10.21.3-.3.6-.59.88-.9,1-1,1.93-2,2.82-2.94.7-.75,1.37-1.48,2-2.21a48.09,48.09,0,0,0,7-9.58l.71,1.07.17.26,19.12,29h0l18,27.33,0,0,1.08,1.64,7.39,11.2a3.48,3.48,0,0,1-.09,3.86c-1.72,2.42-4.91,7-8.57,12.55-.2.29-.39.59-.58.89-1.68,2.56-3.44,5.32-5.22,8.19-.19.31-.38.61-.55.93-.72,1.17-1.44,2.35-2.16,3.55q-.6,1-1.2,2.07c-.2.33-.39.68-.59,1s-.4.69-.59,1c-.39.69-.78,1.37-1.16,2.06s-.76,1.37-1.12,2.06c-.73,1.37-1.45,2.73-2.11,4.06-.16.34-.33.67-.49,1a85.44,85.44,0,0,0-4,9.3c-.11.3-.21.6-.3.89,0,0,0,0,0,.08-.11.32-.2.64-.29,1a27,27,0,0,0-.82,3.51c-.05.27-.08.53-.12.8-.13,1.16-.25,2.7-.33,4.58-.16,3.47-.19,8.11,0,13.74,0,.44,0,.87,0,1.32.08,2.23.19,4.6.35,7.11.06,1,.12,2,.2,3.07,0,.52.08,1.05.11,1.58.36,4.79.85,10,1.52,15.54.09.81.19,1.64.3,2.46.08.62.16,1.23.23,1.84.41,3.09.86,6.28,1.38,9.56.08.57.17,1.14.26,1.71,4.94,30.81,14.87,69,33.88,106.25,4.14,8.13,8.72,16.21,13.77,24.16,17.61,27.74,31.38,45,41,56.3C488.77,655.49,490.79,657.8,492.59,659.84Z"/><path class="cls-8" d="M274.08,318.13v7.07a75.33,75.33,0,0,1-31.2.12l-.5-.12v-3.65l.21,0a40.28,40.28,0,0,0,6.47.65c10.15.21,18.25-1.38,24.74-4.07Z"/><polygon class="cls-8" points="418.68 324.56 415.25 331.95 397.23 304.62 397.22 304.62 378.1 275.61 378.1 273.9 380.03 268.3 418.68 324.56"/><path class="cls-9" d="M405.1,143.9s1.23,1.24,0,9.88c0,0,12.35,2.47,13.59,11.12"/><path class="cls-9" d="M198.88,152.13s-1.74.13-6.44,7.5c0,0-11-6.18-17.55-.42"/></g></g></svg>