<svg xmlns="http://www.w3.org/2000/svg" xmlns:xlink="http://www.w3.org/1999/xlink" viewBox="0 0 647.35 706.12"><defs><style>.cls-1{fill:#57c3ff;}.cls-2{fill:url(#linear-gradient);}.cls-3{fill:#ffba7b;}.cls-4{fill:#6b3dad;}.cls-5{fill:#defaff;}.cls-6{opacity:0.75;}.cls-7{fill:#f9de6b;}.cls-11,.cls-12,.cls-13,.cls-15,.cls-8{fill:none;}.cls-8{stroke:#ddc252;}.cls-11,.cls-12,.cls-13,.cls-8{stroke-miterlimit:10;}.cls-15,.cls-8{stroke-width:3px;}.cls-9{fill:#1f95ff;}.cls-10{fill:#5aa9ff;}.cls-11{stroke:#ff9239;}.cls-12{stroke:#ffab5f;}.cls-13{stroke:#94ebff;}.cls-14{fill:#caf8ff;}.cls-15{stroke:#1f95ff;stroke-linecap:round;stroke-linejoin:round;}.cls-16{fill:#ff9239;opacity:0.5;}</style><linearGradient id="linear-gradient" x1="323.67" y1="47.7" x2="323.67" y2="695.05" gradientUnits="userSpaceOnUse"><stop offset="0.39" stop-color="#fff0b0"/><stop offset="1" stop-color="#f9de6b"/></linearGradient></defs><g id="Layer_2" data-name="Layer 2"><g id="Infected"><path class="cls-1" d="M409.76,401.59c-13,21.49-12.06,54.09-10.69,69.61,0,.33.06.64.08.95.06.59.12,1.14.17,1.67h0c.37,3.6.71,5.84.76,6.16h0v0l-18.93-16,14.11,118.69L397.09,598c-17.16,18.68-39.09,30.48-62.91,37.49C248.37,660.79,138.09,624,138.09,624s6.91-28.85,15-62.34c37.56,6.86,92.59-.37,102-4.66A43.9,43.9,0,0,0,275,568c-5.4,28.25-7.86,56-7.86,56,2,2,14,7,17,3l.55-.73c.15-.21.31-.41.47-.61l.11-.15c.33-.43.67-.83,1-1.2h0s0,0,0,0a11.83,11.83,0,0,1,.89-.86l.52-.4.23-.15a4.86,4.86,0,0,1,1.68-.67,3.11,3.11,0,0,1,.44-.06,4.12,4.12,0,0,1,.51,0,11.65,11.65,0,0,1,5.57,1.89,5.57,5.57,0,0,1,1.93,1.52,1.46,1.46,0,0,1,.14.28.46.46,0,0,0,0-.1,23.28,23.28,0,0,0,6.44,4.8c5.6,2.8,10.33,6.47,15.82-.38a4.08,4.08,0,0,1,.6-1.26,1.13,1.13,0,0,1,.1-.13,2.2,2.2,0,0,1,.2-.23l.07-.07.19-.16a4,4,0,0,1,.63-.41l.31-.13.38-.13a5.21,5.21,0,0,1,.86-.18l.5,0a16.29,16.29,0,0,1,4.84.62,5.42,5.42,0,0,0,.65.14l.47.07a4.41,4.41,0,0,0,.71.08,9.3,9.3,0,0,0,4.21-.67c.31-.13.6-.27.89-.42a9.64,9.64,0,0,0,1.58-1.05,8,8,0,0,0,.7-.61,10.85,10.85,0,0,0,1.74-2.16q.18-.28.33-.57a5.33,5.33,0,0,0,.72-3.81c-1-3-9-36-13-55-2.79-13.24-3.15-35.72-11.23-47.44l-.13-.18a16.82,16.82,0,0,0-5.64-5.38,8.23,8.23,0,0,0-.88-.45l0,0a17.05,17.05,0,0,0-9.08-1.53,8.24,8.24,0,0,0-2.83.77c-4.06-1.6-32.16,2.08-38.17,7.23s-58.57,1.34-69.26-18.3a73.44,73.44,0,0,1-24,5.82c-21.37,1.54-40.18-6.27-51.73-12.69a90.28,90.28,0,0,1-12-7.83s36-102,65-131c25.14-25.14,81.86-35.25,96.5-37.5l-.5,2.5s23,17,39,3l.54-2c50.95.36,92.31,34.21,103.48,44.27h0c.07.63.15,1.3.22,2,.7,6.75,1.45,16.8,2,24.87.16,2.31.3,4.45.43,6.31s.23,3.44.31,4.6C410,401.22,409.86,401.4,409.76,401.59Z"/><path class="cls-2" d="M527.09,597c-58.45-13.66-99-27.33-131.82-14.31L381.16,464l18.93,16v0h0c-.05-.32-.39-2.56-.76-6.16h0c-.08-.81-.17-1.68-.25-2.62-1.38-15.66-2.32-48.69,11-70.17-.16-2.33-.42-6.3-.74-10.91-.56-8.07-1.31-18.12-2-24.87-.07-.7-.15-1.37-.22-2h0c-11.17-10.06-52.53-43.91-103.48-44.27l-.54,2c-16,14-39-3-39-3l.5-2.5c-14.64,2.25-71.36,12.36-96.5,37.5-29,29-65,131-65,131a90.28,90.28,0,0,0,12,7.83c11.55,6.42,30.36,14.23,51.73,12.69a73.44,73.44,0,0,0,24-5.82c10.69,19.64,63.16,23.53,69.26,18.3s34.11-8.83,38.17-7.23a8.24,8.24,0,0,1,2.83-.77,17.05,17.05,0,0,1,9.08,1.53l0,0a8.23,8.23,0,0,1,.88.45,16.82,16.82,0,0,1,5.64,5.38l.13.18c8.08,11.72,8.44,34.2,11.23,47.44,4,19,12,52,13,55a5.33,5.33,0,0,1-.72,3.81q-.15.28-.33.57a10.85,10.85,0,0,1-1.74,2.16c-.22.21-.45.41-.7.61a9.64,9.64,0,0,1-1.58,1.05c-.29.15-.58.29-.89.42a9.3,9.3,0,0,1-4.21.67l-.71-.08-.47-.07c-.22,0-.43-.08-.65-.14a16.29,16.29,0,0,0-4.84-.62,3.9,3.9,0,0,0-.5,0,5.21,5.21,0,0,0-.86.18,2.12,2.12,0,0,0-.38.13l-.31.13a4,4,0,0,0-.63.41l-.19.16-.07.07a2.2,2.2,0,0,0-.2.23,1.13,1.13,0,0,0-.1.13,4.08,4.08,0,0,0-.6,1.26c-5.49,6.85-10.22,3.18-15.82.38a23.28,23.28,0,0,1-6.44-4.8.46.46,0,0,1,0,.1,1.22,1.22,0,0,0-.14-.28,5.57,5.57,0,0,0-1.93-1.52,11.65,11.65,0,0,0-5.57-1.89,4.12,4.12,0,0,0-.51,0,3.11,3.11,0,0,0-.44.06,4.86,4.86,0,0,0-1.68.67,1.5,1.5,0,0,0-.23.15l-.52.4a8,8,0,0,0-.89.86s0,0,0,0h0a15.21,15.21,0,0,0-1,1.2l-.11.15c-.16.2-.32.4-.47.61l-.55.73c-3,4-15-1-17-3,0,0,2.46-27.76,7.86-56a43.9,43.9,0,0,1-19.86-11c-9.43,4.29-64.46,11.52-102,4.66-8.07,33.49-15,62.34-15,62.34s110.28,36.76,196.09,11.49c-49,43.15-127,92.13-183.09,60.51-71-40-113-56-108-118s-41-69-43-124,29-78,35-99a42,42,0,0,0-6-36c-35-68-31-106,33-159s43.5-22.5,73.5-78.5,259.06-167.3,321,34c16,52,128.5,2.5,175.5,57.5,51.73,60.53-42,94-75,180,0,0-8,57,37,95S604.09,615,527.09,597Z"/><path class="cls-3" d="M254.09,261c-2.41,4.81-6.62,4.2-9.6,2.87a22.27,22.27,0,0,1-3.52-2.15,1.87,1.87,0,0,1-.39.22c-2.78,1.3-8.75-.24-12.49-12.94a45.07,45.07,0,0,1-.2-9.85c1.34-12.28,9.49-11.27,12-10.66l.55.78C245.56,236.74,257.23,254.75,254.09,261Z"/><path class="cls-4" d="M355.09,198c-2.32.42-4.72.79-7.13,1.1l-.11,0c-20.38,2.65-42.94,1.67-52.76-.12-10.84-2-43-4.91-52.58,23.7-.15.42-.29.86-.42,1.3q-.68,2.25-1.32,4.2c-.06.17-.11.34-.17.5a7,7,0,0,0-.73-.21c-2.49-.61-10.64-1.62-12,10.66L225.09,186s-4-16,15-23,63-11,76-17,76-36,91-4S377.09,194,355.09,198Z"/><path class="cls-3" d="M328.16,206c-1.92,3.84,8.24,14,17.72,16.16-.48,9.17-.71,17.45-.77,20.06-54.19,20.18-93.94-6-104.34-14q.64-1.95,1.32-4.2c9-30,42-27,53-25,9.82,1.79,32.38,2.77,52.76.12-.61,4.23-1.1,9.62-1.49,15.17-3.44-1-8.94-4.23-10.56-6.66S331.55,203.41,328.16,206Z"/><path class="cls-5" d="M348.09,241s-2,51-17,61c-6,4-15.34,5.84-24.67,6.35l-.43,0c-13.65.7-27.27-1.35-30.84-3.21h0l-1.66-.83-1-.51-.78-.41-.18-.1-.5-.28-.51-.3-.77-.49c-.51-.33-1.05-.71-1.6-1.13l-.57-.44-.45-.36c-5.52-4.56-14.22-14.74-26.53-38.36a1.87,1.87,0,0,0,.39-.22,22.27,22.27,0,0,0,3.52,2.15c3,1.33,7.19,1.94,9.6-2.87,3.14-6.28-8.53-24.29-13.67-31.73l.18-.57c.06-.16.11-.33.17-.5,10.4,8,50.15,34.13,104.34,14C346.1,241.81,347.09,241.43,348.09,241Z"/><path class="cls-3" d="M306.42,308.38,303.63,319l-.54,2c-16,14-39-3-39-3l.5-2.5,3-14.78a17.48,17.48,0,0,0,4.54,3.28,25.18,25.18,0,0,0,3,1.15h0C278.76,307.07,292.63,309.14,306.42,308.38Z"/><g id="virus" class="cls-6"><path class="cls-7" d="M506.37,447.29c2.13,4.79-13.13,7.23-10.4,12.52a21.18,21.18,0,0,0,4.23,4.56c1.5.9,4.06,1.16,8.18-1.79,7.79-5.6,9.68,9.17,6.58,17.7s-9.08-2.59-13,3.25-1.5,7.85,1.4,9.28,7-2.21,9.48.9-5.09,17-10.59,17.42-3.19-4.72-9.38-5.88-13.08,8.23-7.19,12.17,4.59,1.85,7.68,5.47-7.89,10.57-12.88,10.42-4.89.94-7.29-7.15-2.39-8.1-5.79-8.94-7.79,5.6-4.5,11.42-.6,11.64-8.48,10.07S438.06,535,442,529.2s7.59-7.79,2.7-12.92-9.09-2.6-11,.88-.31,8.86-5.2,9.8-11.48-4.61-13.57-9.42,13.49-7,10.79-12.35a8,8,0,0,0-1.7-2.36,16.13,16.13,0,0,0-3.28-2.08c-1.55-.55-3.92-.34-7.41,2.2-7.75,5.65-9.75-9.1-6.72-17.66s9.11,2.52,13-3.34,1.44-7.87-1.46-9.27-7,2.26-9.49-.83,5-17,10.46-17.5,3.22,4.69,9.42,5.81,13-8.32,7.1-12.23-4.6-1.81-7.72-5.41,7.81-10.63,12.8-10.51,4.89-1,7.34,7.1,2.45,8.08,5.85,8.89,7.75-5.65,4.42-11.45.51-11.65,8.41-10.13,16.4,3.55,12.55,9.41-7.53,7.85-2.61,12.95,9.11,2.52,11-1,.24-8.87,5.12-9.85S504.24,442.5,506.37,447.29Z"/><path class="cls-8" d="M436.93,485.81s-1.34-4.14-5.52-2.57-5.3-7.43-1.34-12.2,3.39,2.82,9.05-.53"/><path class="cls-8" d="M462.23,504.54a4.45,4.45,0,0,0-5.66,2.84c-1.56,4.21-9.28-.18-10.33-6.09s4.45-1,5.62-7.45"/><path class="cls-8" d="M453,461.21s4.27-1.24,3.25-5.49,8-5.14,12.24-1-3.23,3.34-.64,9.14"/><path class="cls-8" d="M472.68,478.65a4.31,4.31,0,0,0,6.15-1.1c2.68-3.64,8.69,2.88,8,8.94s-4.48-.31-7.43,5.6"/></g><path class="cls-3" d="M472.09,443c-8,47-29,50-29,50s-19.9-1.39-35.78-12.36a48.09,48.09,0,0,1-8-6.84h0c-.08-.81-.17-1.68-.25-2.62-1.38-15.66-2.32-48.69,11-70.17-.16-2.33-.42-6.3-.74-10.91l.18-.07c-.44-6.39-1.15-15.45-2.19-24.8-.07-.7-.15-1.37-.22-2h0c-1.75-15.23-4.36-30.74-8-36.22,2,5-8,6-34-15,0,0-4-2,3-8,0,0-8,1-7-11s2-19,23-23,34-10,45,12,8,28,7,30C436.09,312,480.09,396,472.09,443Z"/><path class="cls-3" d="M311.09,553c-13,15.29-25.94,17.27-36.14,15a43.9,43.9,0,0,1-19.86-11c-9.43,4.29-64.46,11.52-102,4.66a89.89,89.89,0,0,1-17-4.66c-26.21-10.48-23.82-47.33-21-65.17,11.55,6.42,30.36,14.23,51.73,12.69a73.44,73.44,0,0,0,24-5.82c10.69,19.64,63.16,23.53,69.26,18.3s34.11-8.83,38.17-7.23c.67.26.68.66-.17,1.23-6,4-4,12,5,11,8.56-.95,1.74-13.67,7.08-11.47l0,0a17.54,17.54,0,0,1,6.52,5.83l.13.18C321.17,523.27,322.6,535,311.09,553Z"/><path class="cls-5" d="M310.17,510.56c-5.34-2.2,1.48,10.52-7.08,11.47-9,1-11-7-5-11,.85-.57.84-1,.17-1.23a8.24,8.24,0,0,1,2.83-.77A17.05,17.05,0,0,1,310.17,510.56Z"/><path class="cls-5" d="M340.37,622.84q-.15.28-.33.57a10.85,10.85,0,0,1-1.74,2.16c-.22.21-.45.41-.7.61a10.32,10.32,0,0,1-1.58,1.05c-.29.15-.58.29-.89.42a9.44,9.44,0,0,1-4.21.67l-.71-.08c-1.87-11.09-10-58.88-12.62-67.71-3-10,2,46.59,4,67.77l-.19.16-.07.07c-.07.08-.14.15-.2.23a1.13,1.13,0,0,0-.1.13,4.08,4.08,0,0,0-.6,1.26c-5.49,6.85-10.22,3.18-15.82.38a23.28,23.28,0,0,1-6.44-4.8,2.45,2.45,0,0,0,0-.25c0-.23,0-.58-.05-1v-.18c0-.27,0-.58,0-.92,0-.14,0-.29,0-.45s0-.54,0-.83c-.05-.93-.11-2-.19-3.17,0-.5-.06-1-.1-1.56l-.06-.87c0-.32-.05-.64-.07-1-.06-.84-.13-1.69-.2-2.56-.05-.61-.1-1.22-.16-1.83s-.09-1-.14-1.48-.08-.86-.13-1.29c0-.23-.05-.47-.07-.71s-.08-.77-.13-1.15l-.18-1.55-.09-.66c-.2-1.54-.42-3-.66-4.35-.05-.29-.1-.56-.16-.84a23.38,23.38,0,0,0-1.15-4.26,5.65,5.65,0,0,0-.25-.55l-.14-.25c-2.36-3.93-5.95,19.89-7.86,30.3h0c-.34.37-.68.77-1,1.2l-.11.15c-.16.2-.32.4-.47.61l-.55.73c-3,4-15-1-17-3,0,0,2.46-27.76,7.86-56,10.2,2.28,23.17.3,36.14-15,11.51-18,10.08-29.76,5.77-36.44,8.08,11.72,8.44,34.2,11.23,47.44,4,19,12,52,13,55A5.33,5.33,0,0,1,340.37,622.84Z"/><path class="cls-4" d="M263,222.09c-1.7-6,4.24-6,7.64-6.8s9.34-4.24,11-6.79,4.24-4.24,7.64-1.69C291.9,211.9,273.23,228,263,222.09Z"/><path class="cls-4" d="M354.47,221.24a11.61,11.61,0,0,1-8.59.88c-9.48-2.19-19.64-12.32-17.72-16.16,3.39-2.55,5.94-.85,7.64,1.7s7.12,5.64,10.56,6.66l.47.13C350.23,215.3,356.17,215.3,354.47,221.24Z"/><path class="cls-9" d="M407.31,480.67c-3.35,2.56-5.66,1.51-7.23-.67h0c-.05-.32-.39-2.56-.76-6.16A48.09,48.09,0,0,0,407.31,480.67Z"/><path class="cls-10" d="M287.14,623.45a11.83,11.83,0,0,0-.89.86A8,8,0,0,1,287.14,623.45Z"/><path class="cls-11" d="M409.59,401.53s2,35,4,41"/><path class="cls-11" d="M368.59,304.53s33.5-3.5,38.5-6.5,5-19,5-19"/><path class="cls-11" d="M390.34,301.77c6.25,1.76,8.25,6.76,3.25,8.76a64.72,64.72,0,0,1-10,3"/><path class="cls-12" d="M319.09,520s0,11-9,13"/><path class="cls-12" d="M317.58,541.05s-5,6.48-11,6.48"/><path class="cls-12" d="M306.23,558.16s-4.14,3.87-9.14,1.87"/><g id="virus-2" data-name="virus" class="cls-6"><path class="cls-7" d="M595.09,245.69c-3,6.39-18-7.45-21,0a30.29,30.29,0,0,0-1,8.39c.34,2.34,2.19,5.25,8.52,7,12,3.29-1.12,18.09-12.15,22.27s-4.92-11.75-13.93-10.76-9,5.25-8.06,9.52,8,5.39,6.92,10.7-21.06,9.42-26,4.06,2.06-7.44-1.89-14.92-19-6.53-18,3.05,1.95,6.41.91,12.78-17,.93-21-4.41-5-4.31,1.09-13.85,6.07-9.52,4.1-13.8-12-3.29-15,5.2-12.06,9.49-17-.13-9.86-20.31-.85-21.3,14,1.17,15.06-8.4-4.92-11.76-9.93-10.72-9,7.38-14,3.07-4.89-16-1.84-22.36,18.12,8,21.17.56a11.51,11.51,0,0,0,.93-3.83,23.38,23.38,0,0,0-.63-5.24c-.74-2.1-2.9-4.4-8.3-5.84-12-3.19,1-18.1,12-22.36s5,11.72,14,10.65,9-5.32,8-9.58-8-5.32-7-10.65,21-9.58,26-4.26-2,7.46,2,14.91,19,6.39,18-3.19-2-6.39-1-12.78,17-1.07,21,4.26,5,4.26-1,13.84-6,9.58-4,13.84,12,3.19,15-5.32,12-9.59,17,0,10,20.23,1,21.29-14-1.06-15,8.52,5,11.71,10,10.65,9-7.46,14-3.2S598.09,239.3,595.09,245.69Z"/><path class="cls-8" d="M499.59,206.53s3-5-2-8,3-12,11-12,0,6,8,9"/><path class="cls-8" d="M501.86,249.25s-2-5.47-7.49-3.45-7.48-9.86-2.47-16.09,4.68,3.76,12-.6"/><path class="cls-8" d="M537.3,202s4.75,3.39,8.13-1.36,11.73,3.94,11.1,11.91-6-.47-9.61,7.27"/><path class="cls-8" d="M536.18,237.69s.34,5.83,6.16,5.48,4.31,11.59-2.3,16.11-3.38-4.95-11.68-2.91"/></g><g id="virus-3" data-name="virus" class="cls-6"><path class="cls-7" d="M117.93,307.06c-2.15,1.61-4.72-5.73-7.07-3.76a11.56,11.56,0,0,0-1.85,2.63c-.31.85-.21,2.15,1.61,3.87,3.44,3.25-3.62,5.88-8.08,5.3s.45-4.82-2.76-6.1-4,.14-4.42,1.75,1.71,3.24.41,4.83-8.78-.6-9.49-3.29,2-2.14,2-5.35-5.21-5.59-6.62-2.21-.49,2.51-2,4.46-5.9-2.73-6.27-5.24-.9-2.33,2.85-4.45,3.75-2.11,3.86-3.9-3.44-3.25-6-1-5.76,1-5.7-3.08.33-8.59,3.54-7.31,4.5,2.9,6.57-.13.46-4.83-1.41-5.38-4.37.86-5.28-1.47,1.23-6.25,3.4-7.84,4.66,5.92,7,4a4.24,4.24,0,0,0,1-1.12,8.62,8.62,0,0,0,.72-1.87c.13-.83-.18-2-1.74-3.44-3.47-3.22,3.58-5.9,8-5.36s-.42,4.82,2.8,6.08,4-.18,4.41-1.79-1.74-3.22-.44-4.83,8.79.54,9.51,3.23-2,2.14-2,5.36,5.25,5.55,6.63,2.15.48-2.5,2-4.47,5.91,2.69,6.31,5.19.91,2.33-2.82,4.47-3.74,2.15-3.84,3.93,3.47,3.22,6,.9,5.76-1.07,5.72,3-.26,8.59-3.48,7.34-4.52-2.87-6.58.17-.42,4.83,1.46,5.37,4.36-.89,5.28,1.43S120.09,305.45,117.93,307.06Z"/><path class="cls-8" d="M92.81,276.81a2.17,2.17,0,0,0,.76-3.05c-1.14-1.9,3.17-3.49,5.86-2.06s-1.08,2,1.08,4.46"/><path class="cls-8" d="M85.91,291.56a2.17,2.17,0,0,0-1.9-2.5c-2.21-.3-.75-4.65,2-5.84s.9,2.1,4.16,1.95"/><path class="cls-8" d="M106.32,282a2.18,2.18,0,0,0,3,1c2-1,3.24,3.42,1.6,6s-1.93-1.23-4.54.72"/><path class="cls-8" d="M99.53,293.82a2.19,2.19,0,0,0,1.1,2.95c2,.92-.63,4.66-3.67,5s-.25-2.27-3.41-3.07"/></g><g id="virus-4" data-name="virus" class="cls-6"><path class="cls-7" d="M202.38,172.54c-4.58.13-2.27-12.09-7.43-11.65a18.26,18.26,0,0,0-5,1.78c-1.17.85-2.12,2.69-.83,6.69,2.43,7.58-10.34,4.47-16.54-.48s4.72-6,1-10.76-6.08-3.53-8.08-1.79-.15,5.93-3.44,6.85-12.63-9-11.44-13.31,4.82-1,7.53-5.24-3.11-12.36-8.05-9.15-2.83,2.89-6.71,4.11-6.53-9.18-5-12.89.61-4,8-3.28,7.39.68,9-1.61-2.43-7.58-8.19-6.89-9.48-4-5.94-9.47S149,94.27,152.73,99s4.31,8.09,10,6,4.72-6,2.38-8.52-7.26-2.95-6.65-6.92,7.07-7.21,11.65-7.31,2,12.3,7.18,11.91a7.12,7.12,0,0,0,2.44-.57,12.93,12.93,0,0,0,2.66-1.82c.89-1,1.39-2.85.27-6.25-2.49-7.56,10.31-4.53,16.54.37s-4.67,6.07-.9,10.77,6.11,3.5,8.1,1.74.1-5.93,3.38-6.88,12.7,9,11.54,13.23-4.81,1-7.49,5.31,3.21,12.34,8.12,9.09,2.81-2.91,6.68-4.15,6.6,9.14,5.09,12.85-.58,4-8,3.34-7.39-.63-9,1.68,2.49,7.55,8.24,6.82,9.51,4,6,9.44-7.58,11.24-11.35,6.54-4.37-8.07-10-5.93-4.67,6.07-2.31,8.55,7.28,2.9,6.71,6.87S207,172.41,202.38,172.54Z"/><path class="cls-8" d="M190.12,108.52s3.82.26,3.7-3.36,7.66-1.71,10.49,2.73-3.3,1.69-2.12,7"/><path class="cls-8" d="M167.43,121.8a3.45,3.45,0,0,0-.75-5.13c-3.05-2.47,2.77-6.92,8-5.9s-.41,3.66,4.58,6.51"/><path class="cls-8" d="M206,128.18a4,4,0,0,0,3.63,4.13c3.81.54,2,7.61-2.63,9.51s-1.85-3.46-7.39-3.29"/><path class="cls-8" d="M185.93,137.59a3.26,3.26,0,0,0-.83,5c2.25,3.13-4.85,5.64-9.67,3.25s1.52-3.27-2.54-7.3"/></g><path class="cls-13" d="M346.91,255.64s-47.32,13.89-70.32,2.89"/><path class="cls-13" d="M345.37,265.94S306.09,279,280.09,268"/><path class="cls-14" d="M298.16,625.83a1.22,1.22,0,0,0-.14-.28,5.57,5.57,0,0,0-1.93-1.52,11.65,11.65,0,0,0-5.57-1.89l-.51,0a3.11,3.11,0,0,0-.44.06,4.86,4.86,0,0,0-1.68.67l-.23.15-.52.4a11.83,11.83,0,0,0-.89.86s0,0,0,0c1.91-10.41,5.5-34.23,7.86-30.3l.14.25a5.65,5.65,0,0,1,.25.55,23.38,23.38,0,0,1,1.15,4.26c.06.28.11.55.16.84.24,1.34.46,2.81.66,4.35l.09.66.18,1.55c0,.38.09.77.13,1.15s0,.48.07.71c.05.43.09.86.13,1.29s.09,1,.14,1.48.11,1.22.16,1.83c.07.87.14,1.72.2,2.56,0,.32.05.64.07,1l.06.87c0,.54.07,1.06.1,1.56.08,1.17.14,2.24.19,3.17,0,.29,0,.57,0,.83s0,.31,0,.45c0,.34,0,.65,0,.92v.18c0,.44,0,.79.05,1a2.45,2.45,0,0,1,0,.25A.46.46,0,0,1,298.16,625.83Z"/><path class="cls-14" d="M330.21,628.24l-.47-.07c-.22,0-.43-.08-.65-.14a16.29,16.29,0,0,0-4.84-.62l-.5,0a5.21,5.21,0,0,0-.86.18l-.38.13-.31.13a4,4,0,0,0-.63.41c-2-21.18-7-77.73-4-67.77C320.24,569.36,328.34,617.15,330.21,628.24Z"/><path class="cls-15" d="M192.09,497l14.5-5.5s-8-48-9-62"/><line class="cls-15" x1="380.59" y1="462.53" x2="371.59" y2="398.53"/><path class="cls-16" d="M348,199.13C340.83,205,319,204,306.09,205s-30-1-39,1c-7.43,1.65-20.31,12.85-24.58,16.7,9.55-28.61,41.74-25.67,52.58-23.7,9.82,1.79,32.38,2.77,52.76.12Z"/><path class="cls-16" d="M305.75,310.91c-10.83,10.38-39.46-3.88-39.46-3.88l1.27-6.34.57.44c.55.42,1.09.8,1.6,1.13l.77.49.51.3.5.28.18.1.78.41,1,.51,1.66.83h0c3.57,1.86,17.19,3.91,30.84,3.21A13,13,0,0,0,305.75,310.91Z"/><path class="cls-16" d="M409.76,401.59c-4.17,19.94-3.77,27.15-4.17,31.94a276.66,276.66,0,0,1-6,40l-.44-1.38c0-.31,0-.62-.08-.95C397.7,455.68,396.77,423.08,409.76,401.59Z"/></g></g></svg>