<svg xmlns="http://www.w3.org/2000/svg" xmlns:xlink="http://www.w3.org/1999/xlink" viewBox="0 0 672 809"><defs><style>.cls-1{fill:url(#linear-gradient);}.cls-2{fill:#ff3e3e;}.cls-3{fill:#d83535;}.cls-4{fill:#defaff;}.cls-5{fill:#353535;}.cls-6{fill:#afd9db;}.cls-7{fill:#69bbff;}.cls-8{fill:#00d880;}.cls-9{fill:#7c4f00;}.cls-10{fill:#fff;}.cls-11{fill:#8fb5b7;}.cls-12{fill:#749393;}.cls-13{fill:#00aabc;}.cls-14,.cls-15{fill:none;}.cls-14{stroke:#a1fbff;stroke-linecap:round;stroke-linejoin:round;stroke-width:3px;}.cls-15{stroke:#00ba6a;stroke-miterlimit:10;}</style><linearGradient id="linear-gradient" x1="336" y1="54.65" x2="336" y2="796.31" gradientUnits="userSpaceOnUse"><stop offset="0.54" stop-color="#ff5240"/><stop offset="1" stop-color="#d83535"/></linearGradient></defs><g id="Layer_2" data-name="Layer 2"><g id="death"><rect class="cls-1" width="672" height="809"/><path class="cls-2" d="M361.62,271c1.06,1.06,3.18,9.52,1.06,11.64-.34.11-.71.22-1.11.31-16.19,4.14-77.35-2-91.3-7.08-1.61-.6-2.59-1.16-2.8-1.7-2.12-5.29,2.11-9.52,2.11-9.52C364.8,279.45,360.56,269.93,361.62,271Z"/><path class="cls-3" d="M515.38,513.11l24.4,5.93,3.87-28.51c57.21-34.09,57.4-93.79-14.08-113.64s-68.18,67.32-68.18,67.32l-19.21,19.47,25.27,20.71S486,453.82,493.34,452.8s-16.18,39.55-16.18,39.55l28.51,12.8s11.44-25.83,16.84-28.45S515.38,513.11,515.38,513.11Zm-4.8-83.59c-6.14,1-12.24-5.46-16.08-15.58s17.16-20.59,26.35-12.14C525.86,406.38,516.74,428.57,510.58,429.52Zm10.19,20.55c-6.34,4.49-9.71,12.92-10.12-4.91C510.53,439.63,527.09,445.61,520.77,450.07Zm15.87-8.81c-3.18-5.9,5.76-28.53,11.85-27.33,11.21,2.21,17.28,27.13,8.27,30.64S539.78,447.16,536.64,441.26Z"/><path class="cls-4" d="M493.34,459.83c-2.12-68.76-54-89.92-69.83-99.44s-15.87-31.74-15.87-31.74l-2.11-61.36s-6.35-25.39-48.67-38.09c-51.12-15.34-84.63,19-92,28.56S268,363.56,268,363.56c-66.65,32.8-71.94,46.55-82.52,114.26s26.45,81.46,41.26,93.1c11.35,8.92,17.11,2.93,19.18-.36-6-.64-10-1.29-10.71-1.76-.88-.58-2.49-10.71-4.32-25.09a8.43,8.43,0,0,1-4.15-2.42c-4.23-5.29-8.46-37-4.23-44.43,0,0,1.17-.42,3.06-1-2.93-29.36-5.09-56.74-4.12-58.2.78-1.16,14.91-2.45,32.71-3.47,11.35-.65,24.18-1.2,36-1.53,20.74-.59,38.35-.53,39.21.76.28.43.48,2.55.63,6,4.93,3.31,13.86,8.18,22.09,6.73a5.68,5.68,0,0,1-1.57-3.2c-2.11-9.53,13.76-26.45,13.76-26.45,22.4-.65,37.45,9.18,46.3,20.54a52.89,52.89,0,0,1,5.83,9.33c-10.69,32-29.26,33.32-35.33,32.82l-1-1.73c-1.13-2-2.47-4.28-4.16-7-8.46-13.75-9.52-8.46-16.92-12.69-.38-.23-.71-.44-1-.65-2.14,4.83-5.24,9.29-9.41,9.54,0,0-4.71,1.14-11.31,2.47,7.95,22.23,18.4,48.79,24.89,55.29a80.9,80.9,0,0,1-28.32,12.18c.77,8.65,1.44,15,1.87,17.44l-6.25-1.87c-.06,5.78-.09,10.76-.09,14.57-15.67,7.82-61,6.12-82.57,3.95L243.56,728c32.52-5.88,72.52,4.38,97,22.8,14.28,10.75,32.57,17.89,52.54,21.29a174.16,174.16,0,0,0,61.33-.81,169.36,169.36,0,0,0,28.09-7.84c-1-32.88-5.07-165.12-5.27-209.73C493.26,541.56,494.79,506.89,493.34,459.83ZM362.68,282.63c-.34.11-.71.22-1.11.31-16.19,4.14-77.35-2-91.3-7.08-1.61-.6-2.59-1.16-2.8-1.7-2.12-5.29,2.11-9.52,2.11-9.52,95.22,14.81,91,5.29,92,6.35S364.8,280.51,362.68,282.63Z"/><path class="cls-5" d="M362.68,282.63c-.34.11-.71.22-1.11.31-16.19,4.14-77.35-2-91.3-7.08-1.61-.6-2.59-1.16-2.8-1.7-2.12-5.29,2.11-9.52,2.11-9.52,95.22,14.81,91,5.29,92,6.35S364.8,280.51,362.68,282.63Z"/><path class="cls-6" d="M361.82,444.68a1.16,1.16,0,0,0,0,.18S362.23,444.7,361.82,444.68Zm-31.21,1.94c-.14-.3-.29-.6-.43-.92,0,.18,0,.35,0,.53l-1.2-1.11c.39,1.13.8,2.37,1.24,3.68,1.89,5.61,4.32,12.69,7,20.28,6.6-1.33,11.31-2.47,11.31-2.47C343.94,466.9,338,462,330.61,446.62Z"/><path class="cls-7" d="M356.86,368.85c-5.29,5.29-76.17,1.06-80.4-9.52-3.56-8.89-5.62-65.6-6.19-83.47,14,5,75.11,11.22,91.3,7.08C366.11,352.67,362,363.73,356.86,368.85Z"/><path class="cls-8" d="M416.4,446.33c-10.69,32-29.26,33.32-35.33,32.82l-1-1.73c-1.13-2-2.47-4.28-4.16-7-8.46-13.75-9.52-8.46-16.92-12.69-.38-.23-.71-.44-1-.65-3.23-2.41-.49-4.41,2.09-5.6.92-2.9,1.45-5.33,1.64-6.23,0-.1,0-.18,0-.24s0-.14,0-.14.45-.16,0-.18c.83-3.7,4-7.39,5.16-8.69-3.11,3.13-6.66,7.13-9.71,9.24-2.06,1.44-3.89,2-5.19.88a5.68,5.68,0,0,1-1.57-3.2c-2.11-9.53,13.76-26.45,13.76-26.45,22.4-.65,37.45,9.18,46.3,20.54A52.89,52.89,0,0,1,416.4,446.33Z"/><path class="cls-9" d="M330.28,470.43c0,6.41-.07,13.3-.14,20.38-.14,15.66-.36,32.22-.53,46.46-.06,5.34-.12,10.34-.16,14.85-.06,5.78-.09,10.76-.09,14.57-15.67,7.82-61,6.12-82.57,3.95l-.88-.08c-6-.64-10-1.29-10.71-1.76-.88-.58-2.49-10.71-4.32-25.09,7.5,2.33,21.45,1,26.53-2.42,6.35-4.23,3.18-44.43-4.23-48.66-5.74-3.29-21.06,1.08-27.62,3.19-2.93-29.36-5.09-56.74-4.12-58.2.78-1.16,14.91-2.45,32.71-3.47,11.35-.65,24.18-1.2,36-1.53,20.74-.59,38.35-.53,39.21.76.28.43.48,2.55.63,6,.07,1.77.14,3.9.19,6.31h0a9.05,9.05,0,0,0,0,3.1C330.3,454.81,330.31,462.22,330.28,470.43Z"/><path class="cls-10" d="M367,436c-1.2,1.3-4.33,5-5.16,8.69a1.16,1.16,0,0,0,0,.18s0,.06,0,.14,0,.14,0,.24c-.19.9-.72,3.33-1.64,6.23-2.58,1.19-5.32,3.19-2.09,5.6-2.14,4.83-5.24,9.29-9.41,9.54-4.63.29-10.56-4.63-18-20-.14-.3-.29-.6-.43-.92h0c-.05-2.41-.12-4.54-.19-6.31,4.93,3.31,13.86,8.18,22.09,6.73,1.3,1.13,3.13.56,5.19-.88C360.32,443.12,363.87,439.12,367,436Z"/><path class="cls-11" d="M362.15,524.37a80.9,80.9,0,0,1-28.32,12.18c-1.1-12.35-2.44-29.31-3.69-45.74.07-7.08.11-14,.14-20.38,0-8.21,0-15.62-.06-21.63,1.89,5.61,4.32,12.69,7,20.28C345.21,491.31,355.66,517.87,362.15,524.37Z"/><path class="cls-12" d="M335.7,554l-6.25-1.87c0-4.51.1-9.51.16-14.85.17-14.24.39-30.8.53-46.46,1.25,16.43,2.59,33.39,3.69,45.74C334.6,545.2,335.27,551.59,335.7,554Z"/><path class="cls-8" d="M257.41,541.29c-5.08,3.4-19,4.75-26.53,2.42a8.43,8.43,0,0,1-4.15-2.42c-4.23-5.29-8.46-37-4.23-44.43,0,0,1.17-.42,3.06-1,6.56-2.11,21.88-6.48,27.62-3.19C260.59,496.86,263.76,537.06,257.41,541.29Z"/><path class="cls-5" d="M290.15,432.62c-11.82.33-24.65.88-36,1.53,1.46-3.31,3.66-7.06,6.44-8.17,5.29-2.12,19-4.23,23.27-2.12C286.58,425.23,288.87,429.64,290.15,432.62Z"/><path class="cls-13" d="M256.36,284.21s-22.22,5.29-16.93,12.7S256.36,284.21,256.36,284.21Z"/><path class="cls-13" d="M258.27,304.17s-18.47,13.44-10.73,18.24S258.27,304.17,258.27,304.17Z"/><path class="cls-13" d="M365.35,287.3s10.67,20.2,16.52,13.23S365.35,287.3,365.35,287.3Z"/><path class="cls-13" d="M376.22,310.93s4.18,22.45,11.84,17.53S376.22,310.93,376.22,310.93Z"/><path class="cls-13" d="M254.27,275.07s-17-15.21-20.09-6.63S254.27,275.07,254.27,275.07Z"/><path class="cls-13" d="M372.65,277s20.57,9.91,21.14.82S372.65,277,372.65,277Z"/><path class="cls-14" d="M417.69,447.67s34.92,30.68,39.15,33.85"/><path class="cls-14" d="M382.25,481s52.9,109,93.1,73"/><path class="cls-15" d="M362.68,450.84s22.22,15.87,29.62,10.58a21.75,21.75,0,0,0,8.47-13.75"/><path class="cls-3" d="M456.47,204.8l9.89-5-6.59-11.29c9.89-28.86-6.59-50.19-36.26-36.38s-4.39,43.9-4.39,43.9L418,208.57H432.3s-2.2-16.31,0-18.82,5.49,18.82,5.49,18.82L451,204.8s-3.29-12.54-2.19-15.05S456.47,204.8,456.47,204.8Zm-24.79-28.38c-1.81,2.14-5.65,1.63-9.75-.86s.09-12.34,5.54-12C430.43,163.71,433.5,174.28,431.68,176.42Zm9.14,4.35c-.9,3.45.3,7.43-4.78,1.2C434.46,180,441.72,177.33,440.82,180.77Zm2.92-7.78c-2.71-1.17-6-11.85-3.56-13.2,4.4-2.49,13.36,4.62,11.28,8.5S446.44,174.18,443.74,173Z"/><path class="cls-3" d="M135.38,375.17l18.83,2.75,1.46-22.11c41.67-30.28,38.72-76-16.56-85.94s-48.28,56.52-48.28,56.52L77.26,342.7l20.25,14s12.5-24.76,18-26.08-10.24,31.46-10.24,31.46l22.3,7.7s7.35-20.6,11.32-23S135.38,375.17,135.38,375.17Zm-8-63.63c-4.61,1.19-9.57-3.28-13-10.74s12-17,19.37-11.22C137.81,292.72,132,310.37,127.41,311.54Zm8.8,15c-4.58,3.89-6.7,10.59-7.93-3C127.89,319.28,140.78,322.65,136.21,326.53Zm11.59-7.91c-2.72-4.29,2.9-22.26,7.59-21.79,8.62.87,14.52,19.5,7.86,22.85S150.49,322.9,147.8,318.62Z"/><path class="cls-3" d="M278,188.63l7.64-8.45-10.52-5.43c-1.2-26.49-24.94-34.87-48.32-10.46s12.07,35.28,12.07,35.28l3.59,10,13.72-6.72s-8.16-11.31-7-14.24,12.26,11.65,12.26,11.65l11.26-9.05s-7.81-7.94-7.68-10.36S278,188.63,278,188.63Zm-34.34-9.8c-.94,2.47-4.82,3.89-9.69,3.95s-4.48-9.39.87-11.71C237.79,169.81,244.66,176.36,243.7,178.83Zm10.39-1c.42,3,3,5.48-4.14,3.16C247.72,180.26,253.68,174.79,254.09,177.82Zm-.07-7.26c-3,.39-10.12-6.16-8.32-8.31,3.3-3.95,14.55-2.79,14,1.12S257.05,170.19,254,170.56Z"/><path class="cls-3" d="M164.86,607.31l18-8.6-12-19.34c18-49.47-12-86-65.85-62.36s-8,75.25-8,75.25l-2,21.5h26s-4-28,0-32.25,10,32.25,10,32.25l23.94-6.45s-6-21.51-4-25.8S164.86,607.31,164.86,607.31Zm-45-48.65c-3.28,3.66-10.26,2.79-17.72-1.47s.18-21.16,10.07-20.6C117.57,536.88,123.15,555,119.84,558.66Zm16.6,7.45c-1.63,5.91.54,12.75-8.68,2.07C124.89,564.86,138.08,560.22,136.44,566.11Zm5.31-13.32c-4.92-2-10.82-20.31-6.48-22.63,8-4.26,24.27,7.92,20.5,14.57S146.65,554.82,141.75,552.79Z"/><path class="cls-3" d="M336.24,148.51l5.13,1.56,2-6.31c13.93-7,16.34-20.32,1.41-25.42s-17.66,14.32-17.66,14.32l-5,4.15,4.73,4.85s5.3-6.62,7-6.78-5.13,8.65-5.13,8.65l5.76,3.12s3.54-5.64,4.84-6.17S336.24,148.51,336.24,148.51Zm2.27-18.64c-1.39.15-2.48-1.34-2.92-3.63s4.59-4.41,6.27-2.44C342.78,124.86,339.9,129.71,338.51,129.87Zm1.42,4.67c-1.57.93-2.65,2.78-2-1.19C338.09,132.11,341.5,133.6,339.93,134.54Zm3.84-1.81c-.46-1.35,2.4-6.29,3.69-6,2.38.6,2.73,6.2.6,6.9S344.23,134.07,343.77,132.73Z"/><path class="cls-10" d="M277.52,284.74s1.26,49.88,6.3,62.9l10.09,2.17s-7.56-53.14-6.3-64Z"/></g></g></svg>