<svg xmlns="http://www.w3.org/2000/svg" xmlns:xlink="http://www.w3.org/1999/xlink" viewBox="0 0 672 809"><defs><style>.cls-1{fill:url(#linear-gradient);}.cls-2{fill:#57c3ff;}.cls-3{fill:#ffba7b;}.cls-4{fill:#6b3dad;}.cls-5{fill:#defaff;}.cls-6{opacity:0.75;}.cls-7{fill:#f9de6b;}.cls-11,.cls-12,.cls-13,.cls-15,.cls-8{fill:none;}.cls-8{stroke:#ddc252;}.cls-11,.cls-12,.cls-13,.cls-8{stroke-miterlimit:10;}.cls-15,.cls-8{stroke-width:3px;}.cls-9{fill:#1f95ff;}.cls-10{fill:#5aa9ff;}.cls-11{stroke:#ff9239;}.cls-12{stroke:#ffab5f;}.cls-13{stroke:#94ebff;}.cls-14{fill:#caf8ff;}.cls-15{stroke:#1f95ff;stroke-linecap:round;stroke-linejoin:round;}.cls-16{fill:#ff9239;opacity:0.5;}</style><linearGradient id="linear-gradient" x1="336" y1="54.65" x2="336" y2="796.31" gradientUnits="userSpaceOnUse"><stop offset="0.39" stop-color="#fff0b0"/><stop offset="1" stop-color="#f9de6b"/></linearGradient></defs><g id="Layer_2" data-name="Layer 2"><g id="Infected"><rect class="cls-1" width="672" height="809"/><path class="cls-2" d="M447.57,459.59c-13,21.49-12.06,54.09-10.69,69.61,0,.33.06.64.08.95.06.59.12,1.14.17,1.67h0c.37,3.6.71,5.84.76,6.16h0v0L419,522l14.11,118.69L434.9,656c-17.16,18.68-39.09,30.48-62.91,37.49C286.18,718.79,175.9,682,175.9,682s6.91-28.85,15-62.34c37.56,6.86,92.59-.37,102-4.66a43.9,43.9,0,0,0,19.86,11c-5.4,28.25-7.86,56-7.86,56,2,2,14,7,17,3l.55-.73c.15-.21.31-.41.47-.61l.11-.15c.33-.43.67-.83,1-1.2h0s0,0,0,0a11.83,11.83,0,0,1,.89-.86l.52-.4.23-.15a4.86,4.86,0,0,1,1.68-.67,3.11,3.11,0,0,1,.44-.06,4.12,4.12,0,0,1,.51,0A11.65,11.65,0,0,1,333.9,682a5.57,5.57,0,0,1,1.93,1.52,1.46,1.46,0,0,1,.14.28.46.46,0,0,0,0-.1,23.28,23.28,0,0,0,6.44,4.8c5.6,2.8,10.33,6.47,15.82-.38a4.08,4.08,0,0,1,.6-1.26,1.13,1.13,0,0,1,.1-.13,2.2,2.2,0,0,1,.2-.23l.07-.07.19-.16a4,4,0,0,1,.63-.41l.31-.13.38-.13a5.21,5.21,0,0,1,.86-.18l.5,0a16.29,16.29,0,0,1,4.84.62,5.42,5.42,0,0,0,.65.14l.47.07a4.41,4.41,0,0,0,.71.08,9.3,9.3,0,0,0,4.21-.67c.31-.13.6-.27.89-.42a9.64,9.64,0,0,0,1.58-1.05,8,8,0,0,0,.7-.61,10.85,10.85,0,0,0,1.74-2.16q.18-.28.33-.57a5.33,5.33,0,0,0,.72-3.81c-1-3-9-36-13-55-2.79-13.24-3.15-35.72-11.23-47.44l-.13-.18A16.82,16.82,0,0,0,348.9,569a8.23,8.23,0,0,0-.88-.45l0,0A17.05,17.05,0,0,0,338.9,567a8.24,8.24,0,0,0-2.83.77c-4.06-1.6-32.16,2.08-38.17,7.23s-58.57,1.34-69.26-18.3a73.44,73.44,0,0,1-24,5.82c-21.37,1.54-40.18-6.27-51.73-12.69a90.28,90.28,0,0,1-12-7.83s36-102,65-131c25.14-25.14,81.86-35.25,96.5-37.5l-.5,2.5s23,17,39,3l.54-2c50.95.36,92.31,34.21,103.48,44.27h0c.07.63.15,1.3.22,2,.7,6.75,1.45,16.8,2,24.87.16,2.31.3,4.45.43,6.31s.23,3.44.31,4.6C447.78,459.22,447.67,459.4,447.57,459.59Z"/><path class="cls-3" d="M291.9,319c-2.41,4.81-6.62,4.2-9.6,2.87a22.27,22.27,0,0,1-3.52-2.15,1.87,1.87,0,0,1-.39.22c-2.78,1.3-8.75-.24-12.49-12.94a45.07,45.07,0,0,1-.2-9.85c1.34-12.28,9.49-11.27,12-10.66l.55.78C283.37,294.74,295,312.75,291.9,319Z"/><path class="cls-4" d="M392.9,256c-2.32.42-4.72.79-7.13,1.1l-.11,0c-20.38,2.65-42.94,1.67-52.76-.12-10.84-2-43-4.91-52.58,23.7-.15.42-.29.86-.42,1.3q-.67,2.25-1.32,4.2c-.06.17-.11.34-.17.5a7,7,0,0,0-.73-.21c-2.49-.61-10.64-1.62-12,10.66L262.9,244s-4-16,15-23,63-11,76-17,76-36,91-4S414.9,252,392.9,256Z"/><path class="cls-3" d="M366,264c-1.92,3.84,8.24,14,17.72,16.16-.48,9.17-.71,17.45-.77,20.06-54.19,20.18-93.94-5.95-104.34-13.95q.65-2,1.32-4.2c9-30,42-27,53-25,9.82,1.79,32.38,2.77,52.76.12-.61,4.23-1.1,9.62-1.49,15.17-3.44-1-8.94-4.23-10.56-6.66S369.36,261.41,366,264Z"/><path class="cls-5" d="M385.9,299s-2,51-17,61c-6,4-15.34,5.84-24.67,6.35l-.43,0c-13.65.7-27.27-1.35-30.84-3.21h0c-.54-.28-1.09-.55-1.66-.83l-1-.51-.78-.41-.18-.1-.5-.28-.51-.3-.77-.49c-.51-.33-1.05-.71-1.6-1.13l-.57-.44-.45-.36c-5.52-4.56-14.22-14.74-26.53-38.36a1.87,1.87,0,0,0,.39-.22,22.27,22.27,0,0,0,3.52,2.15c3,1.33,7.19,1.94,9.6-2.87,3.14-6.28-8.53-24.29-13.67-31.73l.18-.57c.06-.16.11-.33.17-.5,10.4,8,50.15,34.13,104.34,13.95C383.91,299.81,384.9,299.43,385.9,299Z"/><path class="cls-3" d="M344.23,366.38,341.44,377l-.54,2c-16,14-39-3-39-3l.5-2.5,3-14.78A17.48,17.48,0,0,0,309.9,362a25.18,25.18,0,0,0,3,1.15h0C316.57,365.07,330.44,367.14,344.23,366.38Z"/><g id="virus" class="cls-6"><path class="cls-7" d="M544.17,505.29c2.14,4.79-13.12,7.22-10.39,12.52a21.42,21.42,0,0,0,4.23,4.56c1.5.9,4.06,1.16,8.17-1.8,7.8-5.59,9.69,9.17,6.59,17.71s-9.08-2.59-13,3.25-1.5,7.85,1.4,9.28,7-2.22,9.48.9-5.09,17-10.59,17.42-3.19-4.72-9.38-5.88-13.08,8.23-7.2,12.17,4.6,1.85,7.69,5.47-7.89,10.57-12.88,10.42-4.89.94-7.29-7.16-2.39-8.09-5.79-8.93-7.79,5.59-4.5,11.41-.6,11.65-8.48,10.07-16.38-3.67-12.48-9.5,7.58-7.79,2.7-12.93-9.09-2.59-11,.88-.3,8.86-5.19,9.81-11.48-4.61-13.58-9.42,13.5-7,10.8-12.35a7.91,7.91,0,0,0-1.71-2.36,16.54,16.54,0,0,0-3.27-2.09c-1.56-.54-3.93-.34-7.41,2.21-7.75,5.65-9.75-9.1-6.72-17.66s9.11,2.52,13-3.34,1.44-7.87-1.47-9.28-7,2.27-9.49-.83,5-17,10.46-17.5,3.23,4.7,9.43,5.82,13-8.33,7.1-12.23-4.6-1.81-7.72-5.41,7.81-10.64,12.8-10.52,4.89-1,7.34,7.1,2.45,8.08,5.85,8.89,7.75-5.65,4.42-11.44.51-11.66,8.41-10.13,16.4,3.54,12.55,9.41-7.54,7.84-2.61,12.94,9.11,2.53,11-.95.24-8.87,5.12-9.85S542,500.5,544.17,505.29Z"/><path class="cls-8" d="M474.74,543.81s-1.35-4.14-5.52-2.57-5.3-7.43-1.34-12.2,3.39,2.82,9.05-.54"/><path class="cls-8" d="M500,562.53a4.46,4.46,0,0,0-5.66,2.85c-1.57,4.2-9.28-.18-10.33-6.1s4.44-1,5.61-7.45"/><path class="cls-8" d="M490.85,519.21s4.26-1.24,3.25-5.49,8-5.14,12.24-1-3.23,3.35-.65,9.14"/><path class="cls-8" d="M510.49,536.65a4.3,4.3,0,0,0,6.15-1.11c2.68-3.63,8.69,2.89,8,9s-4.48-.31-7.43,5.6"/></g><path class="cls-3" d="M509.9,501c-8,47-29,50-29,50s-19.9-1.39-35.78-12.36a48.09,48.09,0,0,1-8-6.84h0c-.08-.81-.17-1.68-.25-2.62-1.38-15.66-2.32-48.69,11-70.17-.16-2.33-.42-6.3-.74-10.91l.18-.07c-.44-6.39-1.15-15.45-2.19-24.8-.07-.7-.15-1.37-.22-2h0c-1.75-15.23-4.36-30.74-8-36.22,2,5-8,6-34-15,0,0-4-2,3-8,0,0-8,1-7-11s2-19,23-23,34-10,45,12,8,28,7,30C473.9,370,517.9,454,509.9,501Z"/><path class="cls-3" d="M348.9,611c-13,15.29-25.94,17.27-36.14,15a43.9,43.9,0,0,1-19.86-11c-9.43,4.29-64.46,11.52-102,4.66a89.89,89.89,0,0,1-17-4.66c-26.21-10.48-23.82-47.33-21-65.17,11.55,6.42,30.36,14.23,51.73,12.69a73.44,73.44,0,0,0,24-5.82c10.69,19.64,63.16,23.53,69.26,18.3s34.11-8.83,38.17-7.23c.67.26.68.66-.17,1.23-6,4-4,12,5,11,8.56-.95,1.74-13.67,7.08-11.47l0,0a17.54,17.54,0,0,1,6.52,5.83l.13.18C359,581.27,360.41,593,348.9,611Z"/><path class="cls-5" d="M348,568.56c-5.34-2.2,1.48,10.52-7.08,11.47-9,1-11-7-5-11,.85-.57.84-1,.17-1.23a8.24,8.24,0,0,1,2.83-.77A17.05,17.05,0,0,1,348,568.56Z"/><path class="cls-5" d="M378.18,680.84q-.15.28-.33.57a10.85,10.85,0,0,1-1.74,2.16c-.22.21-.45.41-.7.61a10.32,10.32,0,0,1-1.58,1.05c-.29.15-.58.29-.89.42a9.44,9.44,0,0,1-4.21.67l-.71-.08c-1.87-11.09-10-58.88-12.62-67.71-3-10,2,46.59,4,67.77l-.19.16-.07.07c-.07.08-.14.15-.2.23a1.13,1.13,0,0,0-.1.13,4.08,4.08,0,0,0-.6,1.26c-5.49,6.85-10.22,3.18-15.82.38a23.28,23.28,0,0,1-6.44-4.8,2.45,2.45,0,0,0,0-.25c0-.23,0-.58-.05-1v-.18c0-.27,0-.58,0-.92,0-.14,0-.29,0-.45s0-.54-.05-.83c0-.93-.11-2-.19-3.17,0-.5-.06-1-.1-1.56l-.06-.87c0-.32-.05-.64-.07-1-.06-.84-.13-1.69-.2-2.56-.05-.61-.1-1.22-.16-1.83s-.09-1-.14-1.48-.08-.86-.13-1.29c0-.23-.05-.47-.07-.71s-.08-.77-.13-1.15l-.18-1.55-.09-.66c-.2-1.54-.42-3-.66-4.35-.05-.29-.1-.56-.16-.84a23.38,23.38,0,0,0-1.15-4.26,5.65,5.65,0,0,0-.25-.55l-.14-.25c-2.36-3.93-5.95,19.89-7.86,30.3h0c-.34.37-.68.77-1,1.2l-.11.15c-.16.2-.32.4-.47.61l-.55.73c-3,4-15-1-17-3,0,0,2.46-27.76,7.86-56,10.2,2.28,23.17.3,36.14-15,11.51-18,10.08-29.76,5.77-36.44,8.08,11.72,8.44,34.2,11.23,47.44,4,19,12,52,13,55A5.33,5.33,0,0,1,378.18,680.84Z"/><path class="cls-4" d="M300.85,280.08c-1.7-5.94,4.24-5.94,7.64-6.79s9.34-4.24,11-6.79,4.25-4.24,7.64-1.7C329.71,269.9,311,286,300.85,280.08Z"/><path class="cls-4" d="M392.28,279.24a11.61,11.61,0,0,1-8.59.88C374.21,277.93,364.05,267.8,366,264c3.39-2.55,5.94-.85,7.64,1.7s7.12,5.64,10.56,6.66l.47.13C388,273.3,394,273.3,392.28,279.24Z"/><path class="cls-9" d="M445.12,538.67c-3.35,2.56-5.66,1.51-7.23-.67h0c-.05-.32-.39-2.56-.76-6.16A48.09,48.09,0,0,0,445.12,538.67Z"/><path class="cls-10" d="M325,681.45a11.83,11.83,0,0,0-.89.86A8,8,0,0,1,325,681.45Z"/><path class="cls-11" d="M447.4,459.53s2,35,4,41"/><path class="cls-11" d="M406.4,362.53s33.5-3.5,38.5-6.5,5-19,5-19"/><path class="cls-11" d="M428.15,359.77c6.25,1.76,8.25,6.76,3.25,8.76a64.72,64.72,0,0,1-10,3"/><path class="cls-12" d="M356.9,578s0,11-9,13"/><path class="cls-12" d="M355.39,599s-5,6.49-11,6.49"/><path class="cls-12" d="M344,616.15S339.9,620,334.9,618"/><g id="virus-2" data-name="virus" class="cls-6"><path class="cls-7" d="M632.9,303.69c-3,6.38-18-7.46-21,0a30.25,30.25,0,0,0-1,8.39c.34,2.34,2.19,5.25,8.52,7,12,3.29-1.12,18.09-12.15,22.26s-4.92-11.74-13.93-10.75-9,5.25-8.06,9.52,8,5.39,6.92,10.7-21.06,9.42-26,4.06,2.06-7.45-1.89-14.92-19-6.54-18,3,1.95,6.41.91,12.79-17,.93-21-4.42-5-4.3,1.09-13.84,6.07-9.53,4.1-13.81-12-3.29-15,5.21-12.06,9.49-17-.13-9.86-20.31-.85-21.3,14,1.17,15.06-8.4-4.92-11.76-9.93-10.73-9,7.38-14,3.08-4.89-16-1.84-22.37,18.12,8,21.17.57a11.5,11.5,0,0,0,.93-3.84,23.38,23.38,0,0,0-.63-5.24c-.74-2.09-2.9-4.39-8.3-5.83-12-3.19,1-18.1,12-22.36s5,11.71,14,10.65,9-5.33,8-9.58-8-5.33-7-10.65,21-9.58,26-4.26-2,7.45,2,14.91,19,6.38,18-3.2-2-6.39-1-12.77,17-1.07,21,4.25,5,4.26-1,13.85-6,9.58-4,13.84,12,3.19,15-5.33,12-9.58,17,0,10,20.23,1,21.3-14-1.07-15,8.51,5,11.72,10,10.65,9-7.45,14-3.19S635.9,297.3,632.9,303.69Z"/><path class="cls-8" d="M537.4,264.53s3-5-2-8,3-12,11-12,0,6,8,9"/><path class="cls-8" d="M539.67,307.25s-2-5.47-7.49-3.45-7.48-9.86-2.47-16.1,4.68,3.76,12-.6"/><path class="cls-8" d="M575.11,260s4.75,3.38,8.13-1.36,11.73,3.93,11.1,11.91-6-.47-9.61,7.26"/><path class="cls-8" d="M574,295.69s.35,5.82,6.17,5.47,4.3,11.6-2.3,16.12-3.39-4.95-11.68-2.91"/></g><g id="virus-3" data-name="virus" class="cls-6"><path class="cls-7" d="M155.74,365.05c-2.16,1.61-4.72-5.72-7.07-3.76a11.82,11.82,0,0,0-1.85,2.64c-.31.84-.21,2.15,1.61,3.87,3.44,3.25-3.62,5.87-8.08,5.3s.45-4.83-2.76-6.11-4,.15-4.43,1.76,1.72,3.23.41,4.83-8.78-.61-9.49-3.3,2-2.13,2-5.35-5.21-5.59-6.61-2.2-.49,2.5-2,4.46-5.89-2.74-6.26-5.24-.9-2.33,2.85-4.45,3.75-2.12,3.86-3.91-3.45-3.25-6-.94-5.76,1-5.7-3.09.33-8.59,3.54-7.31,4.5,2.9,6.57-.12.46-4.83-1.42-5.38-4.37.86-5.27-1.48,1.23-6.25,3.4-7.84,4.66,5.93,7,4a4.16,4.16,0,0,0,1-1.12,8.16,8.16,0,0,0,.73-1.87c.13-.84-.19-2-1.75-3.45-3.46-3.22,3.59-5.9,8.06-5.36s-.42,4.83,2.8,6.08,4-.17,4.41-1.78-1.74-3.22-.44-4.83,8.78.54,9.51,3.22-2,2.15-2,5.37,5.25,5.55,6.63,2.15.48-2.51,2-4.47,5.91,2.68,6.3,5.19.92,2.32-2.82,4.47-3.74,2.14-3.83,3.93,3.47,3.22,6,.9,5.76-1.07,5.72,3-.26,8.59-3.48,7.33-4.53-2.86-6.58.18-.42,4.83,1.45,5.36,4.37-.89,5.29,1.44S157.9,363.45,155.74,365.05Z"/><path class="cls-8" d="M130.62,334.8a2.16,2.16,0,0,0,.76-3c-1.14-1.9,3.17-3.49,5.86-2.06s-1.08,2,1.08,4.45"/><path class="cls-8" d="M123.72,349.56a2.17,2.17,0,0,0-1.9-2.5c-2.21-.3-.75-4.65,2.05-5.85s.9,2.1,4.16,2"/><path class="cls-8" d="M144.12,340a2.18,2.18,0,0,0,3,1c2-1,3.24,3.42,1.59,6s-1.93-1.23-4.53.72"/><path class="cls-8" d="M137.34,351.82a2.17,2.17,0,0,0,1.1,2.94c2,.93-.64,4.67-3.67,5s-.25-2.27-3.41-3.07"/></g><g id="virus-4" data-name="virus" class="cls-6"><path class="cls-7" d="M240.19,230.54c-4.58.13-2.27-12.09-7.43-11.66a18.47,18.47,0,0,0-5,1.78c-1.17.85-2.12,2.7-.83,6.7,2.43,7.57-10.35,4.46-16.54-.48s4.71-6,1-10.76-6.08-3.53-8.09-1.79-.14,5.93-3.43,6.85-12.63-9-11.44-13.31,4.82-1,7.53-5.24-3.11-12.37-8.05-9.15-2.83,2.89-6.71,4.1-6.53-9.18-5-12.88.61-4,8-3.29,7.39.69,9-1.61-2.43-7.57-8.18-6.88-9.48-4-5.95-9.47,7.69-11.19,11.42-6.46,4.31,8.09,10,6,4.72-6,2.38-8.53-7.26-2.94-6.65-6.91,7.07-7.22,11.65-7.32,2,12.31,7.18,11.91a7.45,7.45,0,0,0,2.44-.56,13.4,13.4,0,0,0,2.65-1.82c.9-1,1.4-2.85.28-6.25-2.49-7.56,10.3-4.54,16.54.37s-4.67,6.07-.9,10.76,6.11,3.5,8.1,1.75.09-5.94,3.38-6.88,12.7,9,11.54,13.23-4.81,1-7.49,5.3,3.21,12.35,8.12,9.1,2.81-2.91,6.68-4.15,6.6,9.13,5.08,12.85-.57,4-8,3.34-7.39-.64-9,1.67,2.49,7.56,8.24,6.83,9.51,4,6,9.43-7.59,11.25-11.36,6.55-4.36-8.07-10-5.93-4.67,6.07-2.31,8.55,7.28,2.89,6.71,6.87S244.76,230.4,240.19,230.54Z"/><path class="cls-8" d="M227.93,166.52s3.81.26,3.69-3.36,7.67-1.71,10.5,2.73-3.3,1.68-2.12,7"/><path class="cls-8" d="M205.24,179.79a3.45,3.45,0,0,0-.75-5.12c-3.05-2.47,2.77-6.93,8-5.9s-.42,3.65,4.58,6.51"/><path class="cls-8" d="M243.76,186.18a4,4,0,0,0,3.63,4.13c3.8.54,2,7.61-2.63,9.5s-1.86-3.45-7.39-3.28"/><path class="cls-8" d="M223.74,195.59a3.25,3.25,0,0,0-.83,5c2.25,3.13-4.86,5.65-9.68,3.26s1.53-3.28-2.53-7.31"/></g><path class="cls-13" d="M384.71,313.64s-47.31,13.89-70.31,2.89"/><path class="cls-13" d="M383.18,323.93S343.9,337,317.9,326"/><path class="cls-14" d="M336,683.83a1.22,1.22,0,0,0-.14-.28A5.57,5.57,0,0,0,333.9,682a11.65,11.65,0,0,0-5.57-1.89l-.51,0a3.11,3.11,0,0,0-.44.06,4.86,4.86,0,0,0-1.68.67l-.23.15-.52.4a11.83,11.83,0,0,0-.89.86s0,0,0,0c1.91-10.41,5.5-34.23,7.86-30.3l.14.25a5.65,5.65,0,0,1,.25.55,23.38,23.38,0,0,1,1.15,4.26c.06.28.11.55.16.84.24,1.34.46,2.81.66,4.35l.09.66.18,1.55c0,.38.09.77.13,1.15s0,.48.07.71c0,.43.09.86.13,1.29s.09,1,.14,1.48.11,1.22.16,1.83c.07.87.14,1.72.2,2.56,0,.32.05.64.07,1l.06.87c0,.54.07,1.06.1,1.56.08,1.17.14,2.24.19,3.17,0,.29,0,.57.05.83s0,.31,0,.45c0,.34,0,.65,0,.92v.18c0,.44,0,.79.05,1a2.45,2.45,0,0,1,0,.25A.46.46,0,0,1,336,683.83Z"/><path class="cls-14" d="M368,686.24l-.47-.07c-.22,0-.43-.08-.65-.14a16.29,16.29,0,0,0-4.84-.62l-.5,0a5.21,5.21,0,0,0-.86.18l-.38.13-.31.13a4,4,0,0,0-.63.41c-2-21.18-7-77.73-4-67.77C358.05,627.36,366.15,675.15,368,686.24Z"/><path class="cls-15" d="M229.9,555l14.5-5.5s-8-48-9-62"/><line class="cls-15" x1="418.4" y1="520.53" x2="409.4" y2="456.53"/><path class="cls-16" d="M385.77,257.13C378.64,263,356.82,262,343.9,263s-30-1-39,1c-7.43,1.65-20.31,12.85-24.58,16.7,9.55-28.61,41.74-25.67,52.58-23.7,9.82,1.79,32.38,2.77,52.76.12Z"/><path class="cls-16" d="M343.56,368.91C332.73,379.29,304.1,365,304.1,365l1.27-6.34.57.44c.55.42,1.09.8,1.6,1.13l.77.49.51.3.5.28.18.1.78.41,1,.51c.57.28,1.12.55,1.66.83h0c3.57,1.86,17.19,3.91,30.84,3.21A13,13,0,0,0,343.56,368.91Z"/><path class="cls-16" d="M447.57,459.59c-4.17,19.94-3.77,27.14-4.17,31.94a276.66,276.66,0,0,1-6,40l-.44-1.38c0-.31,0-.62-.08-.95C435.51,513.68,434.58,481.08,447.57,459.59Z"/></g></g></svg>