<svg xmlns="http://www.w3.org/2000/svg" xmlns:xlink="http://www.w3.org/1999/xlink" viewBox="0 0 672 809"><defs><style>.cls-1{fill:url(#linear-gradient);}.cls-2{fill:#009957;}.cls-3{fill:#ffba7b;}.cls-4{fill:#78ff78;}.cls-5{fill:#fff;}.cls-6{fill:#a1ffa1;}.cls-7{fill:#abffab;}.cls-8,.cls-9{opacity:0.08;}.cls-9{fill:none;stroke:#000;stroke-linecap:round;stroke-linejoin:round;stroke-width:3px;}</style><linearGradient id="linear-gradient" x1="336" y1="54.65" x2="336" y2="796.31" gradientUnits="userSpaceOnUse"><stop offset="0.39" stop-color="#6cff6c"/><stop offset="1" stop-color="#009957"/></linearGradient></defs><g id="Layer_2" data-name="Layer 2"><g id="cured"><rect class="cls-1" width="672" height="809"/><polygon class="cls-2" points="267.77 147.42 267.77 163.33 251.85 163.33 251.85 178.85 235.53 178.85 235.53 163.33 220.02 163.33 220.02 147.42 235.53 147.42 235.53 132.3 251.85 132.3 251.85 147.42 267.77 147.42"/><path d="M244.92,381.85c.59.92,1.19,1.84,1.83,2.71C246.11,383.68,245.5,382.77,244.92,381.85Zm-14.54-78s0,.36-.06,1a3.39,3.39,0,0,1,.84-1.91C230.9,303.28,230.63,303.57,230.38,303.88Zm267.11,98.69a237.58,237.58,0,0,1-44.26-8.07,3.43,3.43,0,0,0-4.19,2.19,109.7,109.7,0,0,1-5,12.17,3.48,3.48,0,0,0,.19,3.42l7.39,11.2a3.46,3.46,0,0,1-.09,3.85c-1.72,2.42-4.91,7-8.57,12.56-.2.29-.39.59-.58.89-1.68,2.56-3.44,5.32-5.22,8.19l-.55.92c-.72,1.17-1.44,2.36-2.16,3.56l-1.2,2.06-.59,1c-.2.35-.4.69-.59,1-.39.69-.78,1.37-1.16,2.06l-1.12,2.06c-.73,1.36-1.45,2.72-2.11,4.06-.16.34-.33.66-.49,1a85.44,85.44,0,0,0-4,9.3l-.3.89,0,.08c-.1.32-.2.64-.29,1a27.07,27.07,0,0,0-.82,3.52c-.05.28-.08.54-.12.8-.13,1.16-.25,2.7-.33,4.58-.16,3.47-.19,8.11,0,13.74,0,.44,0,.87,0,1.32.08,2.23.19,4.6.35,7.11.07,1,.13,2,.2,3.07,0,.52.08,1,.11,1.58.36,4.79.85,10,1.52,15.54.09.81.19,1.64.3,2.46.08.61.16,1.23.23,1.84.41,3.09.86,6.28,1.38,9.56a3.43,3.43,0,0,0,1.78,2.52l21.35,11.46c38.83,6.07,58.2-5.6,75.63-24C543.21,513,628,414.83,497.49,402.57Z"/><path d="M396.09,364.73c-.89,1-1.84,1.95-2.82,2.94-.29.3-.58.61-.88.9-3.29,3.31-7,6.76-10.83,10.21l-1.93,1.72a.13.13,0,0,1-.07.06l-2,1.72c-2.89,2.52-5.82,5-8.71,7.38-.71.6-1.42,1.16-2.12,1.74-1.13.93-2.27,1.84-3.39,2.74l-1,.78-1.93,1.52c-.61.5-1.24,1-1.84,1.44-5.17,4-9.74,7.36-13,9.56a7.07,7.07,0,0,1-.61.4c-1.36.9-2.47,1.57-3.26,2-1.3.65-4.26,1.26-8.39,1.81l-1.85.25c-1.66.2-3.46.39-5.38.58l-2.85.27-1.5.13-2.29.19-3,.23-2.65.19-3.27.23-1.81.12-1.69.11h0l-1.61.1h-.26a3.47,3.47,0,0,1-3.41-3.47V399a3.42,3.42,0,0,1,1.94-3.09l.39-.19,1-.5c1-.54,2-1.11,3-1.72a38.27,38.27,0,0,0,6.7-5.37c.48-.48,1-1,1.39-1.47l.69-.78c.36-.44.71-.87,1.05-1.31s.88-1.16,1.28-1.75c.18-.26.36-.52.52-.78.53-.79,1-1.58,1.46-2.39.15-.24.28-.49.42-.73s.3-.57.44-.86l.4-.79c.26-.54.51-1.07.74-1.6.12-.26.23-.53.35-.8.52-1.25,1-2.5,1.37-3.71.11-.33.21-.64.3-.95l.1-.35c.12-.39.22-.77.32-1.15l0-.12c.11-.41.22-.82.32-1.24.23-1,.43-1.93.6-2.84.08-.43.16-.87.22-1.28.15-.94.27-1.82.36-2.62,0-.24.05-.47.07-.69,0-.6.1-1.14.14-1.64a3.36,3.36,0,0,1,2.62-3,.07.07,0,0,0,.06,0l.27-.07.26-.1.09,0a3.65,3.65,0,0,0,.74-.37l0,0,.29-.19a5.9,5.9,0,0,0,.61-.47,6.71,6.71,0,0,0,.94-.92c.1-.12.22-.25.32-.38a16.17,16.17,0,0,0,1.92-3.15c.21-.41.4-.85.6-1.32.06-.17.13-.34.21-.52.21-.52.41-1.09.61-1.7l.07-.22q.13-.4.27-.84c.1-.35.2-.69.3-1.06s.18-.68.26-1,.18-.72.27-1.09c3.19-13.72-1.46-22.18-7.51-20.48a3.46,3.46,0,0,1-4.38-3.1l-.53-12.15a3.44,3.44,0,0,0-4.27-3.2h-.08l-.89.25a100.93,100.93,0,0,1-10.07,2.17c-.4.07-.82.12-1.22.18l-1.21.16c-.82.1-1.62.16-2.4.22l-1.16.06-1.13,0a15.4,15.4,0,0,1-5.91-.94c-5.26-2.26-24.8-12.73-43.19-11.94l-.64,0c-.54,0-1.06.07-1.6.12l-.83.09c-1,.1-1.89.25-2.83.43l-.83.18a3.88,3.88,0,0,0-.49.11,8.34,8.34,0,0,0-.83.2c-.53.13-1.08.28-1.62.45l-.8.26c-.57.19-1.12.4-1.68.64l-.69.28c-.27.11-.53.23-.78.35s-.52.24-.77.37L239,297l-.71.4c-.5.29-1,.6-1.48.92-.28.17-.55.36-.83.56s-.75.53-1.11.82a30.71,30.71,0,0,0-3.66,3.34c-.26.27-.53.56-.78.87,0,0,0,.36-.06,1,0,.17,0,.35,0,.55s0,.28,0,.44a1.48,1.48,0,0,0,0,.22c0,.24,0,.51,0,.79V307q0,.43,0,.93c0,.18,0,.36,0,.55s0,.37,0,.56c0,.38,0,.78,0,1.19,0,.2,0,.41,0,.64,0,1.49,0,3.2,0,5.07,0,.77,0,1.56.05,2.37.1,5.13.41,11.29,1.12,17.9.1.95.22,1.9.34,2.87A150,150,0,0,0,234.42,355c.2.86.4,1.73.62,2.59.08.3.14.59.23.88.22.83.44,1.65.67,2.48.09.32.19.66.29,1,.23.78.47,1.55.72,2.32s.57,1.75.88,2.62.57,1.59.88,2.39c.47,1.23,1,2.45,1.48,3.64s.94,2.08,1.44,3.09h0c.5,1,1,2,1.56,3s1.12,1.94,1.72,2.88,1.19,1.83,1.83,2.71c5.74,7.95,13.45,13.79,23.74,15.69l-.41.47v14.67l.5.31-2.59.1c-4.8.18-9.11.33-12.6.44l-1.33,0-3.22.09-.67,0c-.64,0-1.22,0-1.73.05h-.35a3.43,3.43,0,0,1-3-1.59L207.45,355.7h0c0-16.92,5.17-33.29,4.65-47.83a3.46,3.46,0,0,0-2.45-3.19,28.3,28.3,0,0,1-8.39-4.22,3.37,3.37,0,0,1-1.19-3.7c1.56-5.29,3.53-11.2,6-17.89q.79-2.16,1.67-4.42c.6-1.6,1.25-3.24,1.92-4.91l.77-1.94c.78-1.95,1.61-4,2.47-6a3.53,3.53,0,0,1,1.64-1.53,21.58,21.58,0,0,0,4.32-2.69l.75-.6.35-.3c.16-.14.32-.28.47-.43a29.89,29.89,0,0,0,2.3-2.25l.6-.66c.21-.23.41-.46.61-.7s.42-.49.63-.75a55.36,55.36,0,0,0,5.21-7.57c.22-.38.43-.77.66-1.16.44-.8.89-1.63,1.32-2.5a3.44,3.44,0,0,1,3-1.85,2.66,2.66,0,0,1,.62.06c41.26,7.81,56.87,24.53,81.41,22.3s60.21,24.54,62.44,45.72a11.6,11.6,0,0,1,.06,1.64c0,.06,0,.13,0,.19a3.82,3.82,0,0,1,0,.4c-.44,4.05-2.14,28.35,16.9,51.38A3.42,3.42,0,0,1,396.09,364.73Z"/><path class="cls-3" d="M338.1,341.79l-.27,1.1c-.08.34-.17.69-.26,1s-.2.71-.3,1.06-.18.57-.27.84l-.07.22c-.21.6-.41,1.17-.61,1.71a5.49,5.49,0,0,0-.21.51c-.2.47-.39.91-.6,1.33a16.37,16.37,0,0,1-1.92,3.14c-.1.13-.22.26-.32.38a7.8,7.8,0,0,1-1.55,1.39l-.29.19,0,0c-.26.14-.5.26-.74.36l-.09,0-.26.1-.27.08a4,4,0,0,1-2.61-.12s0,1.17-.07,3.14c0,.5-.09,1.05-.14,1.64,0,.22-.05.45-.07.69-.09.8-.21,1.68-.36,2.62-.06.41-.14.85-.22,1.28-.17.92-.37,1.86-.6,2.85-.1.41-.21.82-.32,1.23a.93.93,0,0,0,0,.13c-.1.37-.2.75-.32,1.14,0,.12-.07.24-.1.35-.09.31-.19.62-.3.95-.39,1.21-.85,2.46-1.37,3.71-.12.27-.23.54-.35.8-.23.53-.48,1.06-.74,1.6l-.4.79c-.14.29-.29.58-.44.86s-.27.49-.42.74c-.45.8-.93,1.59-1.46,2.38-.16.26-.34.53-.52.78-.4.59-.84,1.17-1.28,1.75s-.69.87-1.05,1.31l-.69.78c-.45.5-.91,1-1.39,1.47a38.78,38.78,0,0,1-6.7,5.38c-.95.6-1.95,1.17-3,1.71l-1,.5-.39.19c-.62.29-1.27.58-1.94.86l-.08,0c-6.49,2.69-14.59,4.28-24.74,4.07a40.28,40.28,0,0,1-6.47-.65l-.21,0c-10.19-1.94-17.83-7.75-23.53-15.65-.64-.87-1.24-1.79-1.83-2.71s-1.17-1.9-1.72-2.88-1.06-2-1.56-3h0q-.75-1.51-1.44-3.09c-.52-1.19-1-2.4-1.48-3.64-.31-.79-.6-1.59-.88-2.39s-.6-1.74-.88-2.62-.49-1.54-.72-2.32c-.1-.32-.2-.66-.29-1-.23-.83-.45-1.65-.67-2.48-.09-.29-.15-.58-.23-.88-.22-.86-.42-1.73-.62-2.58a150.14,150.14,0,0,1-2.78-15.94c-.12-1-.24-1.92-.34-2.87-.71-6.61-1-12.76-1.12-17.89,0-.82,0-1.61-.05-2.38,0-1.87,0-3.58,0-5.07,0-.23,0-.44,0-.64,0-.41,0-.81,0-1.19,0-.19,0-.38,0-.56s0-.37,0-.55q0-.5,0-.93v-.06c0-.28,0-.55,0-.79a1.48,1.48,0,0,1,0-.22c0-.16,0-.3,0-.44s0-.38,0-.54c0-.68.06-1.05.06-1.05.25-.3.52-.59.78-.87a30.71,30.71,0,0,1,3.66-3.34c.36-.29.73-.57,1.11-.82s.55-.39.83-.56c.48-.32,1-.62,1.48-.91L239,297l.81-.41.77-.37c.25-.12.51-.24.78-.35l.69-.28c.56-.24,1.11-.45,1.68-.64.27-.09.54-.18.8-.25.54-.18,1.09-.33,1.62-.46a8.34,8.34,0,0,1,.83-.2,3.88,3.88,0,0,1,.49-.11l.83-.18c.94-.18,1.88-.33,2.83-.43l.83-.08c.54-.06,1.06-.11,1.6-.13l.64,0c18.39-.79,37.93,9.68,43.19,11.94a15.4,15.4,0,0,0,5.91.94l1.13,0,1.16-.06c.78-.05,1.58-.12,2.4-.22l1.21-.16c.4-.05.82-.11,1.22-.18a98.19,98.19,0,0,0,10.07-2.17l.89-.25h.08a3.44,3.44,0,0,1,4.27,3.2l.53,12.15a3.46,3.46,0,0,0,4.38,3.1C336.64,319.61,341.29,328.08,338.1,341.79Z"/><path class="cls-3" d="M301.78,396.8v18.59a30.63,30.63,0,0,1-31.2.31l-.5-.31V400.72l.41-.47a39.19,39.19,0,0,0,6.47.64C287.15,401.11,295.28,399.51,301.78,396.8Z"/><polygon class="cls-2" points="455.23 176.72 455.23 215.41 416.53 215.41 416.53 253.14 376.84 253.14 376.84 215.41 339.14 215.41 339.14 176.72 376.84 176.72 376.84 139.97 416.53 139.97 416.53 176.72 455.23 176.72"/><path class="cls-3" d="M464.59,260.38s1.68,82.73-14.52,133.18a111.07,111.07,0,0,1-6.9,17.08l-18-27.37h0L405.83,354a696.92,696.92,0,0,0,22-99.2s-8.92-8.92-4.46-35.69c2.23-16.72,7.81,2.23,7.81,2.23S442.29,189,463.48,189C486.9,191.25,479.09,254.81,464.59,260.38Z"/><path class="cls-3" d="M235.47,232.14q-1.28,3.27-2.61,6.08c-.35.77-.72,1.5-1.09,2.21-.43.87-.88,1.7-1.32,2.5-.23.39-.44.78-.66,1.16a55.36,55.36,0,0,1-5.21,7.57c-.21.26-.41.51-.63.75s-.4.47-.61.7l-.6.66a29.89,29.89,0,0,1-2.3,2.25c-.15.15-.31.29-.47.43l-.35.3-.75.6a21.58,21.58,0,0,1-4.32,2.69,10,10,0,0,1-1.2.46c-.15.35-.3.71-.44,1.07-.86,2.06-1.69,4.07-2.47,6-.26.66-.52,1.3-.77,1.94-.67,1.67-1.32,3.31-1.92,4.91s-1.14,3-1.67,4.42c-2.48,6.69-4.45,12.6-6,17.89-.22.75-.45,1.48-.65,2.21-6.28,22.18-5,32.76-3.58,42.83.86,5.94,4.89,12.94,9.37,19.16h0l-20.84,63c-16.13-13-33.85-34.28-36.48-58.78-5.39-50.2,31-118.79,31-118.79-9.59-12.22,16.29-70.8,37.54-60.72,18.2,10.86,11.19,44.35,11.19,44.35S242.13,216.63,235.47,232.14Z"/><path class="cls-4" d="M522.39,724l.14-.19c.19-.24.36-.47.53-.71a146.38,146.38,0,0,0,23.26-46c12.78-41.92,6.44-84-13.59-111C515.61,571.93,499.36,583.71,486,600a143.77,143.77,0,0,0-24.13,43.38c-.75,2.1-1.44,4.21-2.1,6.37,0,0,17.85,21.92,34.68,41.84,3.63,4.27,7.18,8.45,10.52,12.3,8.75,10.1,15.9,17.95,18,19.23Z"/><path class="cls-5" d="M532.73,566.12c-2.59,10.63-5.47,21.18-8.44,31.69-1.47,5.27-3,10.51-4.55,15.76l-4.7,15.7-4.85,15.65c-1.67,5.21-3.29,10.43-5,15.61-3.4,10.39-6.9,20.75-10.68,31,2.59-10.64,5.46-21.18,8.44-31.7,1.46-5.27,3-10.5,4.54-15.75l4.71-15.71L517,612.74c1.67-5.2,3.29-10.42,5-15.61C525.45,586.74,529,576.39,532.73,566.12Z"/><path class="cls-5" d="M491.35,701.86c-.9,5.07-2.08,10-3.36,15-.61,2.48-1.33,4.93-2,7.4l-2.16,7.35-2.31,7.31c-.82,2.42-1.59,4.85-2.47,7.25-1.7,4.82-3.5,9.61-5.59,14.32.89-5.07,2.07-10,3.35-15,.61-2.48,1.33-4.93,2-7.4l2.15-7.35,2.32-7.31c.82-2.42,1.6-4.85,2.47-7.25C487.46,711.36,489.26,706.57,491.35,701.86Z"/><path class="cls-5" d="M540.88,693,505,703.85l34.89-13.68A1.5,1.5,0,0,1,541,693Z"/><path class="cls-5" d="M493.92,689.69l-32.18-46.57,34.61,44.8a1.5,1.5,0,0,1-2.38,1.83Z"/><path class="cls-5" d="M504.51,660.33l47.66-14.92-46.68,17.76a1.5,1.5,0,0,1-1.06-2.81Z"/><path class="cls-5" d="M510,635.3l-24-35.36,26.42,33.59a1.5,1.5,0,0,1-2.36,1.86Z"/><path class="cls-5" d="M522.58,600.41l24-6.71-23,9.55a1.5,1.5,0,0,1-1.15-2.78Z"/><path class="cls-6" d="M305.19,414l1.87-.11-1.61.1Z"/><path class="cls-6" d="M421.37,486.88c-.14,3.47-.19,8.11,0,13.74C421.18,495,421.21,490.35,421.37,486.88Z"/><path class="cls-6" d="M421.4,501.94c.09,2.23.2,4.6.35,7.11C421.59,506.54,421.48,504.17,421.4,501.94Z"/><path class="cls-6" d="M422.06,513.7c.37,4.8.86,10,1.52,15.54C422.91,523.68,422.42,518.49,422.06,513.7Z"/><path class="cls-6" d="M451.55,427.33a3.46,3.46,0,0,0,.09-3.85l1.28,1.95S452.42,426.11,451.55,427.33Z"/><polygon class="cls-2" points="158.48 415.13 158.48 433.05 141.01 433.05 141.01 450.52 123.09 450.52 123.09 433.05 106.07 433.05 106.07 415.13 123.09 415.13 123.09 398.11 141.01 398.11 141.01 415.13 158.48 415.13"/><polygon class="cls-2" points="546.26 345.23 546.26 369.53 522.57 369.53 522.57 393.22 498.27 393.22 498.27 369.53 475.19 369.53 475.19 345.23 498.27 345.23 498.27 322.14 522.57 322.14 522.57 345.23 546.26 345.23"/><polygon class="cls-2" points="140.64 311.97 140.64 323.9 129.01 323.9 129.01 335.53 117.08 335.53 117.08 323.9 105.75 323.9 105.75 311.97 117.08 311.97 117.08 300.64 129.01 300.64 129.01 311.97 140.64 311.97"/><path class="cls-4" d="M234.79,686.53c-36.35-8.07-73.16-29.65-103.42-62.28a143.53,143.53,0,0,1,39.91,9.84C199.87,645.64,222.07,664.85,234.79,686.53Z"/><path class="cls-4" d="M263.4,679.47c-.59,2.16-1.27,4.31-2,6.4-.46,1.37-.95,2.73-1.45,4.08-1.33-.05-2.66-.14-4-.25-1.12-.08-2.24-.18-3.38-.28q-5.61-.57-11.29-1.59c-10.53-27-35.68-52-70.06-65.86a140.76,140.76,0,0,0-50.87-10.42q-6.78-8.4-13-17.58c-39.35-58.61-48.9-125.82-30.16-176.11a144,144,0,0,1,16.38,1.71c22.1,3.6,44.56,12.28,65.83,25.5,26.29,16.32,50.74,39.61,70.32,68.77C266.5,568.48,277.29,630.57,263.4,679.47Z"/><path class="cls-5" d="M259.76,689.61c-7.89-11.13-15.61-22.38-23.42-33.56l-23.16-33.74c-15.43-22.49-30.67-45.11-45.91-67.74s-30.35-45.33-45.33-68.13l-22.46-34.2c-7.4-11.46-14.88-22.87-22.2-34.38,7.88,11.13,15.61,22.38,23.42,33.56l23.16,33.74Q147,518.9,169.76,552.9T215.09,621l22.46,34.2C245,666.69,252.43,678.1,259.76,689.61Z"/><path class="cls-5" d="M211.14,615.52,241.83,536,214,616.55a1.5,1.5,0,0,1-2.84-1Z"/><path class="cls-5" d="M192.19,591.13l-91-6.29,91.17,3.29a1.5,1.5,0,0,1-.11,3Z"/><path class="cls-5" d="M167.11,549.27l29-75-26.21,76a1.5,1.5,0,1,1-2.83-1Z"/><path class="cls-5" d="M140.63,515.7,72,510.59l68.82,2.12a1.5,1.5,0,1,1-.09,3Z"/><path class="cls-4" d="M244.66,710.47c-.67.41-1.35.82-2,1.21l-1.75,1c-27.3,14.78-65.93,16.41-103,1.46C99.08,698.45,72,668.65,64.5,637.74c1.06-.65,2.13-1.27,3.22-1.86q2.63-1.47,5.39-2.74a107.11,107.11,0,0,1,40.78-9.39,127,127,0,0,1,17.48.5,143.53,143.53,0,0,1,39.91,9.84c28.59,11.55,50.79,30.76,63.51,52.44a93,93,0,0,1,6.64,13.68c.51,1.33,1,2.66,1.43,4s.8,2.53,1.16,3.8C244.25,708.81,244.46,709.65,244.66,710.47Z"/><path class="cls-5" d="M195.34,690.35,184.53,641l13.72,48.67a1.5,1.5,0,1,1-2.88.81Z"/><path class="cls-5" d="M151.7,672.49l-10.12-46.61,13,45.88a1.5,1.5,0,0,1-2.89.82A.29.29,0,0,1,151.7,672.49Z"/><path class="cls-7" d="M520.49,738.5c-13.22,13.26-29.29,25.29-47.37,33-21.94,9.34-46.84,12.28-73.18,3.22a118.6,118.6,0,0,1-22.89-10.81c-52.42-31.72-105.59-49.53-150.15-53a399.76,399.76,0,0,1,5.94-56.07c6.39-35.79-1-75.06-4.26-106.7-8.77-85.87-51.7-101.48-51.7-101.48L184.37,424l20.84-63h0l1.91-5.78.33.52h0l37.64,59.16,1,1.65,2.3-.07,1.73,0,.67,0,3.22-.09,1.33,0c3.49-.11,7.8-.26,12.6-.44l2.59-.1a30.63,30.63,0,0,0,31.2-.31v-1.15l3.41-.2h.26l1.61-.1h0l1.69-.11,1.81-.12,3.27-.23c.9-.05,1.78-.12,2.65-.19l3-.23,2.29-.19,1.5-.13,2.85-.27c1.92-.19,3.72-.38,5.38-.58l1.85-.25c4.13-.55,7.09-1.16,8.39-1.81a33.91,33.91,0,0,0,3.26-2l.61-.4c3.29-2.2,7.86-5.54,13-9.56.62-.46,1.23-.94,1.84-1.43l1.93-1.53,1-.78c1.12-.89,2.26-1.81,3.39-2.73l2.12-1.74c2.89-2.39,5.82-4.87,8.71-7.39.65-.57,1.31-1.13,2-1.71l.07-.07,1.93-1.72c3.85-3.44,7.54-6.9,10.83-10.21.3-.3.6-.59.88-.9,1-1,1.93-2,2.82-2.94.7-.75,1.37-1.48,2-2.21a48.09,48.09,0,0,0,7-9.58l.71,1.07.17.26,19.12,29h0l18,27.33,0,0,1.08,1.64,7.39,11.2a3.48,3.48,0,0,1-.09,3.86c-1.72,2.42-4.91,7-8.57,12.55-.2.29-.39.59-.58.89-1.68,2.56-3.44,5.32-5.22,8.19-.19.31-.38.61-.55.93-.72,1.17-1.44,2.35-2.16,3.55q-.6,1-1.2,2.07c-.2.33-.39.68-.59,1s-.4.69-.59,1c-.39.69-.78,1.37-1.16,2.06s-.76,1.37-1.12,2.06c-.73,1.37-1.45,2.73-2.11,4.06-.16.34-.33.67-.49,1a85.44,85.44,0,0,0-4,9.3c-.11.3-.21.6-.3.89l0,.08c-.11.32-.2.64-.29,1a27,27,0,0,0-.82,3.51c-.05.27-.08.53-.12.8-.13,1.16-.25,2.7-.33,4.58-.16,3.47-.19,8.11,0,13.74,0,.44,0,.87,0,1.32.08,2.23.19,4.6.35,7.11.06,1,.12,2,.2,3.07,0,.52.08,1,.11,1.58.36,4.79.85,10,1.52,15.54.09.81.19,1.64.3,2.46.08.62.16,1.23.23,1.84.41,3.09.86,6.28,1.38,9.56.08.57.17,1.14.26,1.71,4.94,30.81,14.87,69,33.88,106.25,4.14,8.13,8.72,16.21,13.77,24.16,17.61,27.74,31.38,45,41,56.3C516.67,734.15,518.69,736.46,520.49,738.5Z"/><path class="cls-8" d="M302,396.79v7.07a75.33,75.33,0,0,1-31.2.12l-.5-.12v-3.65l.21,0a40.28,40.28,0,0,0,6.47.65c10.15.21,18.25-1.38,24.74-4.07Z"/><polygon class="cls-8" points="446.58 403.22 443.15 410.61 425.13 383.28 425.12 383.28 406 354.27 406 352.56 407.93 346.96 446.58 403.22"/><path class="cls-9" d="M433,222.56s1.24,1.23,0,9.88c0,0,12.35,2.47,13.59,11.12"/><path class="cls-9" d="M226.78,230.79s-1.74.13-6.44,7.49c0,0-11-6.17-17.55-.42"/></g></g></svg>