<svg xmlns="http://www.w3.org/2000/svg" xmlns:xlink="http://www.w3.org/1999/xlink" viewBox="0 0 702.43 722.29"><defs><style>.cls-1{fill:#ff3e3e;}.cls-2{fill:url(#linear-gradient);}.cls-3{fill:#d83535;}.cls-4{fill:#defaff;}.cls-5{fill:#353535;}.cls-6{fill:#afd9db;}.cls-7{fill:#69bbff;}.cls-8{fill:#00d880;}.cls-9{fill:#7c4f00;}.cls-10{fill:#fff;}.cls-11{fill:#8fb5b7;}.cls-12{fill:#749393;}.cls-13{fill:#00aabc;}.cls-14,.cls-15{fill:none;}.cls-14{stroke:#a1fbff;stroke-linecap:round;stroke-linejoin:round;stroke-width:3px;}.cls-15{stroke:#00ba6a;stroke-miterlimit:10;}</style><linearGradient id="linear-gradient" x1="351.22" y1="18.64" x2="351.22" y2="721.07" gradientUnits="userSpaceOnUse"><stop offset="0.54" stop-color="#ff5240"/><stop offset="1" stop-color="#d83535"/></linearGradient></defs><g id="Layer_2" data-name="Layer 2"><g id="death"><path class="cls-1" d="M366.32,208.72c1.06,1.06,3.18,9.52,1.06,11.64-.34.11-.71.22-1.11.31-16.19,4.14-77.35-2-91.3-7.08-1.61-.6-2.59-1.16-2.8-1.7-2.12-5.29,2.11-9.52,2.11-9.52C369.5,217.18,365.26,207.66,366.32,208.72Z"/><path class="cls-2" d="M674.31,439.45c-56.17,50.05-183.49,60.84-176.66,126.73s44.86,111.89-4.83,132.73c-1.85.77-3.72,1.52-5.61,2.22-1-32.88-5.07-165.12-5.27-209.73,16-12.11,17.55-46.78,16.1-93.84-2.12-68.76-54-89.92-69.83-99.44s-15.87-31.74-15.87-31.74L410.23,205s-6.35-25.39-48.67-38.09c-51.12-15.34-84.63,19-92,28.57s3.17,105.79,3.17,105.79c-66.65,32.8-71.94,46.55-82.52,114.26s26.45,81.46,41.26,93.1c11.35,8.92,17.11,2.93,19.19-.36-6-.64-10-1.29-10.72-1.76-.88-.58-2.49-10.71-4.32-25.09a8.43,8.43,0,0,1-4.15-2.42c-4.23-5.28-8.46-37-4.23-44.43,0,0,1.17-.42,3.06-1-2.93-29.36-5.09-56.74-4.12-58.2.78-1.16,14.91-2.45,32.71-3.47,11.35-.65,24.18-1.2,36-1.53,20.74-.59,38.35-.53,39.21.76.28.43.48,2.55.63,6,4.93,3.31,13.86,8.18,22.09,6.73a5.68,5.68,0,0,1-1.57-3.2C353.1,371.11,369,354.19,369,354.19c22.4-.65,37.45,9.18,46.3,20.54a52.89,52.89,0,0,1,5.83,9.33c-10.69,32-29.26,33.32-35.33,32.82l-1-1.73c-1.13-2-2.47-4.28-4.16-7-8.46-13.75-9.52-8.46-16.92-12.69-.38-.23-.71-.44-1-.65-2.14,4.83-5.24,9.29-9.41,9.54,0,0-4.71,1.14-11.31,2.47,8,22.23,18.4,48.79,24.89,55.29a81,81,0,0,1-28.32,12.19c.77,8.64,1.44,15,1.87,17.43l-6.25-1.87c-.06,5.78-.09,10.76-.09,14.57-15.67,7.82-61,6.12-82.57,3.95l-3.23,157.32c-15.47,2.79-29.25,9.25-38.84,20.21-29.78,34-42.67,38.18-93.8,35.86s-138.71-57.94-110-134.17,84.07-139,59-192.57c-29.49-63-25-158.66,73.9-196S220.18,63.58,259.86,33.31s154.68-86.4,219.26,87.19S600.78,289.61,646.69,305.8,730.5,389.4,674.31,439.45Z"/><path class="cls-3" d="M520.08,450.84l24.4,5.93,3.87-28.5c57.21-34.1,57.4-93.8-14.08-113.65s-68.18,67.32-68.18,67.32l-19.21,19.47,25.27,20.71S490.7,391.55,498,390.53s-16.18,39.55-16.18,39.55l28.51,12.8s11.44-25.83,16.84-28.45S520.08,450.84,520.08,450.84Zm-4.8-83.59c-6.14,1-12.23-5.46-16.08-15.58s17.16-20.59,26.35-12.14C530.56,344.11,521.44,366.3,515.28,367.25Zm10.19,20.56c-6.34,4.48-9.71,12.91-10.12-4.92C515.23,377.36,531.79,383.34,525.47,387.81ZM541.34,379c-3.18-5.9,5.76-28.53,11.85-27.33,11.21,2.21,17.28,27.13,8.27,30.64S544.48,384.89,541.34,379Z"/><path class="cls-4" d="M498,397.56c-2.12-68.76-54-89.92-69.83-99.44s-15.87-31.74-15.87-31.74L410.23,205s-6.35-25.39-48.67-38.09c-51.12-15.34-84.63,19-92,28.57s3.17,105.79,3.17,105.79c-66.65,32.8-71.94,46.55-82.52,114.26s26.45,81.46,41.26,93.1c11.35,8.92,17.11,2.93,19.19-.36-6-.64-10-1.29-10.72-1.76-.88-.58-2.49-10.71-4.32-25.09a8.43,8.43,0,0,1-4.15-2.42c-4.23-5.28-8.46-37-4.23-44.43,0,0,1.17-.42,3.06-1-2.93-29.36-5.09-56.74-4.12-58.2.78-1.16,14.91-2.45,32.71-3.47,11.35-.65,24.18-1.2,36-1.53,20.74-.59,38.35-.53,39.21.76.28.43.48,2.55.63,6,4.93,3.31,13.86,8.18,22.09,6.73a5.68,5.68,0,0,1-1.57-3.2C353.1,371.11,369,354.19,369,354.19c22.4-.65,37.45,9.18,46.3,20.54a52.89,52.89,0,0,1,5.83,9.33c-10.69,32-29.26,33.32-35.33,32.82l-1-1.73c-1.13-2-2.47-4.28-4.16-7-8.46-13.75-9.52-8.46-16.92-12.69-.38-.23-.71-.44-1-.65-2.14,4.83-5.24,9.29-9.41,9.54,0,0-4.71,1.14-11.31,2.47,8,22.23,18.4,48.79,24.89,55.29a81,81,0,0,1-28.32,12.19c.77,8.64,1.44,15,1.87,17.43l-6.25-1.87c-.06,5.78-.09,10.76-.09,14.57-15.67,7.82-61,6.12-82.57,3.95l-3.23,157.32c32.52-5.88,72.52,4.38,97,22.8,14.28,10.75,32.57,17.89,52.54,21.29a174.16,174.16,0,0,0,61.33-.81,169.36,169.36,0,0,0,28.09-7.84c-1-32.88-5.07-165.12-5.27-209.73C498,479.29,499.49,444.62,498,397.56ZM367.38,220.36c-.34.11-.71.22-1.11.31-16.19,4.14-77.35-2-91.3-7.08-1.61-.6-2.59-1.16-2.8-1.7-2.12-5.29,2.11-9.52,2.11-9.52,95.22,14.81,91,5.29,92,6.35S369.5,218.24,367.38,220.36Z"/><path class="cls-5" d="M367.38,220.36c-.34.11-.71.22-1.11.31-16.19,4.14-77.35-2-91.3-7.08-1.61-.6-2.59-1.16-2.8-1.7-2.12-5.29,2.11-9.52,2.11-9.52,95.22,14.81,91,5.29,92,6.35S369.5,218.24,367.38,220.36Z"/><path class="cls-6" d="M366.52,382.41a1.16,1.16,0,0,0,0,.18S366.93,382.43,366.52,382.41Zm-31.21,1.94c-.14-.3-.29-.6-.43-.92,0,.18,0,.35,0,.53l-1.19-1.11,1.23,3.68c1.89,5.61,4.32,12.69,7,20.28,6.6-1.33,11.31-2.47,11.31-2.47C348.64,404.63,342.71,399.71,335.31,384.35Z"/><path class="cls-7" d="M361.56,306.58c-5.29,5.29-76.17,1.06-80.4-9.52-3.56-8.89-5.62-65.59-6.19-83.47,13.95,5,75.11,11.22,91.3,7.08C370.81,290.4,366.68,301.46,361.56,306.58Z"/><path class="cls-8" d="M421.1,384.06c-10.69,32-29.26,33.32-35.33,32.82l-1-1.73c-1.13-2-2.47-4.28-4.16-7-8.46-13.75-9.52-8.46-16.92-12.69-.38-.23-.71-.44-1-.65-3.23-2.41-.49-4.41,2.09-5.59.92-2.91,1.45-5.34,1.64-6.24,0-.1,0-.18,0-.24s0-.14,0-.14.45-.16,0-.18c.83-3.7,4-7.39,5.16-8.69-3.11,3.13-6.66,7.13-9.71,9.24-2.06,1.44-3.89,2-5.19.88a5.68,5.68,0,0,1-1.57-3.2C353.1,371.11,369,354.19,369,354.19c22.4-.65,37.45,9.18,46.3,20.54A52.89,52.89,0,0,1,421.1,384.06Z"/><path class="cls-9" d="M335,408.16c0,6.41-.07,13.3-.14,20.38-.14,15.66-.36,32.22-.53,46.46-.06,5.34-.12,10.34-.16,14.85-.06,5.78-.09,10.76-.09,14.57-15.67,7.82-61,6.12-82.57,3.95l-.87-.08c-6-.64-10-1.29-10.72-1.76-.88-.58-2.49-10.71-4.32-25.09,7.5,2.33,21.45,1,26.53-2.42,6.35-4.23,3.18-44.43-4.23-48.66-5.74-3.29-21.06,1.08-27.62,3.19-2.93-29.36-5.09-56.74-4.12-58.2.78-1.16,14.91-2.45,32.71-3.47,11.35-.65,24.18-1.2,36-1.53,20.74-.59,38.35-.53,39.21.76.28.43.48,2.55.63,6,.07,1.77.14,3.9.19,6.31h0a9.05,9.05,0,0,0,0,3.1C335,392.54,335,400,335,408.16Z"/><path class="cls-10" d="M371.68,373.72c-1.2,1.3-4.33,5-5.16,8.69a1.16,1.16,0,0,0,0,.18s0,.06,0,.14,0,.14,0,.24c-.19.9-.72,3.33-1.64,6.24-2.58,1.18-5.32,3.18-2.09,5.59-2.14,4.83-5.24,9.29-9.41,9.54-4.63.29-10.56-4.63-18-20-.14-.3-.29-.6-.43-.92h0c-.05-2.41-.12-4.54-.19-6.31,4.93,3.31,13.86,8.18,22.09,6.73,1.3,1.13,3.13.56,5.19-.88C365,380.85,368.57,376.85,371.68,373.72Z"/><path class="cls-11" d="M366.85,462.1a81,81,0,0,1-28.32,12.19c-1.1-12.36-2.44-29.32-3.69-45.75.07-7.08.11-14,.14-20.38,0-8.21,0-15.62-.06-21.63,1.89,5.61,4.32,12.69,7,20.28C349.91,429,360.36,455.6,366.85,462.1Z"/><path class="cls-12" d="M340.4,491.72l-6.25-1.87c0-4.51.1-9.51.16-14.85.17-14.24.39-30.8.53-46.46,1.25,16.43,2.59,33.39,3.69,45.75C339.3,482.93,340,489.32,340.4,491.72Z"/><path class="cls-8" d="M262.11,479c-5.08,3.4-19,4.75-26.53,2.42a8.43,8.43,0,0,1-4.15-2.42c-4.23-5.28-8.46-37-4.23-44.43,0,0,1.17-.42,3.06-1,6.56-2.11,21.88-6.48,27.62-3.19C265.29,434.59,268.46,474.79,262.11,479Z"/><path class="cls-5" d="M294.85,370.35c-11.82.33-24.65.88-36,1.53,1.46-3.3,3.66-7.06,6.44-8.17,5.29-2.12,19-4.23,23.27-2.12C291.28,363,293.57,367.37,294.85,370.35Z"/><path class="cls-13" d="M261.06,221.94s-22.22,5.29-16.93,12.7S261.06,221.94,261.06,221.94Z"/><path class="cls-13" d="M263,241.91s-18.47,13.43-10.73,18.23S263,241.91,263,241.91Z"/><path class="cls-13" d="M370.05,225s10.67,20.2,16.52,13.23S370.05,225,370.05,225Z"/><path class="cls-13" d="M380.92,248.66s4.18,22.45,11.84,17.53S380.92,248.66,380.92,248.66Z"/><path class="cls-13" d="M259,212.8s-17-15.21-20.09-6.63S259,212.8,259,212.8Z"/><path class="cls-13" d="M377.35,214.69s20.57,9.91,21.14.82S377.35,214.69,377.35,214.69Z"/><path class="cls-14" d="M422.39,385.4s34.92,30.68,39.15,33.85"/><path class="cls-14" d="M387,418.72s52.9,109,93.1,73"/><path class="cls-15" d="M367.38,388.57S389.6,404.44,397,399.15a21.75,21.75,0,0,0,8.47-13.75"/><path class="cls-3" d="M461.17,142.53l9.89-5-6.59-11.29c9.89-28.86-6.59-50.19-36.26-36.38s-4.39,43.9-4.39,43.9l-1.1,12.55H437s-2.2-16.31,0-18.82,5.49,18.82,5.49,18.82l13.19-3.77s-3.29-12.54-2.19-15S461.17,142.53,461.17,142.53Zm-24.79-28.38c-1.81,2.14-5.65,1.63-9.75-.86s.09-12.34,5.54-12C435.13,101.44,438.2,112,436.38,114.15Zm9.14,4.35c-.9,3.45.3,7.44-4.78,1.2C439.16,117.77,446.42,115.06,445.52,118.5Zm2.92-7.78c-2.71-1.17-6-11.85-3.56-13.2,4.4-2.49,13.36,4.62,11.28,8.5S451.14,111.91,448.44,110.72Z"/><path class="cls-3" d="M140.08,312.9l18.83,2.75,1.46-22.1c41.67-30.29,38.72-76-16.56-86s-48.28,56.52-48.28,56.52L82,280.43l20.25,14s12.5-24.76,18-26.08S110,299.81,110,299.81l22.3,7.7s7.35-20.6,11.32-23S140.08,312.9,140.08,312.9Zm-8-63.63c-4.61,1.19-9.57-3.28-13-10.74s12-17,19.37-11.22C142.51,230.45,136.74,248.1,132.11,249.27Zm8.8,15c-4.58,3.89-6.7,10.59-7.93-3C132.59,257,145.48,260.38,140.91,264.26Zm11.59-7.91c-2.72-4.28,2.9-22.26,7.59-21.79,8.62.87,14.52,19.5,7.86,22.85S155.19,260.63,152.5,256.35Z"/><path class="cls-3" d="M282.74,126.36l7.64-8.45-10.52-5.43C278.66,86,254.92,77.61,231.54,102s12.07,35.28,12.07,35.28l3.59,10,13.72-6.72s-8.16-11.31-7-14.24S266.2,138,266.2,138L277.46,129s-7.81-7.94-7.68-10.36S282.74,126.36,282.74,126.36Zm-34.34-9.8c-.94,2.47-4.82,3.89-9.69,4s-4.48-9.39.87-11.71C242.49,107.54,249.36,114.09,248.4,116.56Zm10.39-1c.42,3,3,5.48-4.14,3.16C252.42,118,258.38,112.52,258.79,115.55Zm-.07-7.26c-3,.39-10.12-6.16-8.32-8.31,3.3-4,14.55-2.79,14,1.12S261.75,107.92,258.72,108.29Z"/><path class="cls-3" d="M169.56,545l18-8.6-12-19.34c18-49.47-12-86-65.85-62.36s-8,75.25-8,75.25l-2,21.5h26s-4-28,0-32.25,10,32.25,10,32.25L159.59,545s-6-21.51-4-25.8S169.56,545,169.56,545Zm-45-48.65c-3.28,3.66-10.26,2.79-17.72-1.47s.18-21.16,10.07-20.6C122.27,474.61,127.85,492.73,124.54,496.39Zm16.6,7.45c-1.63,5.91.54,12.75-8.68,2.07C129.6,502.59,142.78,498,141.14,503.84Zm5.31-13.32c-4.92-2-10.82-20.31-6.48-22.63,8-4.26,24.27,7.92,20.5,14.58S151.35,492.55,146.45,490.52Z"/><path class="cls-3" d="M340.94,86.24l5.13,1.56,2-6.31c13.93-7,16.34-20.32,1.41-25.42s-17.66,14.32-17.66,14.32l-5,4.15,4.73,4.85s5.3-6.62,6.95-6.78-5.13,8.65-5.13,8.65l5.76,3.12s3.54-5.64,4.84-6.17S340.94,86.24,340.94,86.24Zm2.27-18.64c-1.39.15-2.48-1.34-2.92-3.63s4.59-4.41,6.27-2.44C347.48,62.59,344.6,67.44,343.21,67.6Zm1.42,4.67c-1.57.93-2.65,2.78-2-1.19C342.79,69.84,346.2,71.33,344.63,72.27Zm3.84-1.81c-.46-1.34,2.4-6.29,3.69-6,2.38.6,2.73,6.21.6,6.9S348.93,71.8,348.47,70.46Z"/><path class="cls-10" d="M282.22,222.47s1.26,49.88,6.3,62.9l10.09,2.17s-7.56-53.14-6.3-64Z"/></g></g></svg>